<svg id="Camada_1" data-name="Camada 1" xmlns="http://www.w3.org/2000/svg" viewBox="0 0 692.94 682.01"><defs><style>.cls-1{fill:#7f7f7f;}.cls-2{fill:#7e7e7e;}.cls-3{fill:#010101;}.cls-4{fill:#050505;}.cls-5{fill:#6f6f6f;}.cls-6{fill:#c2c2c2;}.cls-7{fill:#c6c6c6;}.cls-8{fill:#cecece;}.cls-9{fill:#cfcfcf;}.cls-10{fill:#d3d3d3;}.cls-11{fill:#858585;}.cls-12{fill:#8a8a8a;}.cls-13{fill:#d0d0d0;}.cls-14{fill:#868686;}.cls-15{fill:#cdcdcd;}.cls-16{fill:#c5c5c5;}.cls-17{fill:#d2d2d2;}.cls-18{fill:#d7d7d7;}.cls-19{fill:#d4d4d4;}.cls-20{fill:#8b8b8b;}.cls-21{fill:#d9d9d9;}.cls-22{fill:#848484;}.cls-23{fill:#d6d6d6;}.cls-24{fill:#c7c7c7;}.cls-25{fill:#fcaec8;}.cls-26{fill:#fdadc8;}.cls-27{fill:#e0e0e0;}.cls-28{fill:#dedede;}.cls-29{fill:#dfdfdf;}.cls-30{fill:#ddd;}.cls-31{fill:#ccc;}.cls-32{fill:#a5a5a5;}.cls-33{fill:#a3a3a3;}.cls-34{fill:#acacac;}.cls-35{fill:#aaa;}.cls-36{fill:#a7a7a7;}.cls-37{fill:#d7d6d6;}.cls-38{fill:#d8d8d8;}.cls-39{fill:#d5d5d5;}.cls-40{fill:#a1a1a1;}.cls-41{fill:#a6a6a6;}.cls-42{fill:#bababa;}.cls-43{fill:#a0a0a0;}.cls-44{fill:#a2a2a2;}.cls-45{fill:#9e9e9e;}.cls-46{fill:#9f9f9f;}.cls-47{fill:#aeaeae;}.cls-48{fill:#c1c1c1;}.cls-49{fill:silver;}.cls-50{fill:#bfbfbf;}</style></defs><title>cat-idle</title><path d="M601.16,843.18c0,9.31-.14,18.63,0,27.94,0,2.4-.5,3.16-3.08,3.15q-44.2-.15-88.4,0c-2.5,0-3.15-.61-3.1-3.09.16-8.57,0-17.13.1-25.69,0-2.11-.46-2.78-2.69-2.77q-44.58.1-89.16,0c-2.18,0-2.74.71-2.71,2.8.12,8.57-.05,17.13.13,25.69.05,2.56-.71,3.08-3.17,3.07q-44-.13-88,0c-3,0-3.46-.91-3.4-3.59.18-8.18-.1-16.37.15-24.55.1-3-.92-3.46-3.59-3.45-18.51.11-37,.07-55.54,0-1.23,0-2.51.39-3.69-.33-.71-9.8-.1-19.61-.32-29.42a2.35,2.35,0,0,1,2.21-2.55,23.64,23.64,0,0,1,4.9-.28c16.62-.1,33.24.28,49.87.13,1.58,0,3.32.47,4.59-1,.76-1.7.45-3.49.45-5.23q0-40,0-80c0-1.64,0-3.27.11-4.91.17-1.88,1.14-3.15,3.07-3.17,9.55-.14,19.1-.43,28.64.15a2.66,2.66,0,0,1,1,.48c1.53,1.85,1,4.08,1,6.17q0,56.44,0,112.89c0,5.62,0,5.62,5.62,5.62,6.17,0,12.34,0,18.51,0,1.47,0,3.06.31,4.25-1,.78-1.69.45-3.48.45-5.22q0-41.52,0-83.05a7.32,7.32,0,0,1,.28-3.35c1.34-1.29,3.15-1,4.75-1.38a5,5,0,0,1,1.44.13c7.17.34,14.34.06,21.5.15,5.32.08,5.89.6,5.89,5.84q0,25.67,0,51.32c0,5.15.19,5.39,5.24,5.4q40.94,0,81.88,0c4.69,0,5-.36,5-5.28,0-16.22,0-32.45,0-48.68,0-1.51,0-3,.1-4.52.17-2.76,1.59-4,4.36-4.06,8.42,0,16.85-.05,25.28,0,1.39,0,2.8.1,3.69,1.44.86,1.78.58,3.7.58,5.56,0,23-.07,46,.08,69,0,5.58-1,11.24.76,16.75,5.6,2.07,11.39.51,17.08.93,2.49.18,5,.05,7.53,0,1.25,0,2.57.09,3.2-1.39a25.84,25.84,0,0,0,.2-5.27q0-57.35,0-114.7c-.07-2.89,1.51-4,4.23-4.06,8.42,0,16.85-.11,25.27,0,3.55.06,4.32,1,4.35,5.08.06,12.82,0,25.65,0,38.47q0,22.44,0,44.89c0,1.62-.22,3.27.37,4.84,1.19,1.64,3,1.08,4.51,1.11,8.77.17,17.54-.24,26.31.22,3.07,1,6.25.65,9.37.52,7.63-.31,15.27.78,22.9-.15,2.38-.29,3.87-.73,1.88-3.34a2.6,2.6,0,0,1-.55-1.77c.46-5.15-.12-10.33.5-15.46.61-5,1.53-5.68,6.54-5.76,2.89,0,5.79-.11,8.68,0,4,.19,4.92,1.17,4.52,5.12-.24,2.39.08,4.85-.4,7.14-1.27,6,2.93,9.75,5.47,14.18a1.86,1.86,0,0,0,2.33.71c4.09-1.13,8.26-.61,12.4-.63,14.09-.07,28.18,0,42.27,0,2.75,0,5.56-.37,8.12,1.1a2.48,2.48,0,0,0,1.84.11c9-2.16,18.13-1.66,27.2-.29,1.92.3,3.31-.9,5.08-.91,8.31,0,16.61-.09,24.91,0a5.16,5.16,0,0,1,4.92,2.91c.06,8.43-.08,16.87.08,25.29,0,2.58-.63,3.5-3.34,3.44-7.8-.18-15.6-.07-23.4-.07q-94.56,0-189.11,0C604.12,842.76,602.57,842.31,601.16,843.18Z" transform="translate(-191.6 -192.27)"/><path d="M695.67,570.23c10.32-.39,20.65-.42,31,0,.55,1.47.27,3,.27,4.49q0,84.63,0,169.24c0,4.31,0,4.31,4.22,4.31h54.77a14,14,0,0,1,4.13.22,5.11,5.11,0,0,1,1.17,3.87q.12,11.9,0,23.79a5.81,5.81,0,0,1-1,3.59c-1.38,1.13-3,1.08-4.68,1.08-28.79,0-57.59-.22-86.39-.15a8.6,8.6,0,0,1-3-.37,2.73,2.73,0,0,1-1.14-1c-.92-1.89-.7-3.93-.72-5.93-.15-15.32.28-30.63.11-46-.23-20.89-.16-41.78-.05-62.67.22-28.87-.26-57.75-.07-86.63,0-2.49-.23-5,.77-7.43Z" transform="translate(-191.6 -192.27)"/><path d="M223.23,779.67c-9.57,0-19.13,0-28.69.16-2.39,0-2.94-.72-2.91-3,.13-8.55.05-17.11.05-25.67q0-88.56-.08-177.11c0-3.35.77-4.26,4.12-4.14,7.79.26,15.61-.07,23.4.16,3.18.09,4.21-.54,4.19-4-.15-39.27,0-78.54-.19-117.82,0-3.54.95-4.29,4.31-4.2,8.93.23,17.87.05,26.81,0a.75.75,0,0,1-.43,1.12c-8,.14-16,.06-21.44.06,5.62-.2,13.74.48,21.88-.33a.85.85,0,0,1,1.21.35,6.31,6.31,0,0,1,.59,3.31c0,19.12.15,38.25-.09,57.37a7,7,0,0,1-.26,1.43c-.59,1.71-.37,3.48-.38,5.23-.1,17.72.15,35.43-.13,53.14-.56,1.54-1.5,3-.91,4.79a3,3,0,0,1-1.07.62c-7.86.55-15.71.09-23.57.26-1.46,0-3-.34-4.28.79-1.28,1.67-.86,3.63-.87,5.47-.11,18.47.13,36.93-.13,55.4.13,10.33.21,20.66,0,31,.1,21.1.18,42.2,0,63.29.13,6.84.16,13.67,0,20.51.18,9.22.06,18.45.06,27.67a7.18,7.18,0,0,1-.7,3.64Z" transform="translate(-191.6 -192.27)"/><path d="M858.05,654.14q11-.54,21.92,0c1.52,4.47,3.45,8.76,3.44,13.7-.1,33.72,0,67.45,0,101.17,0,7.35-1.4,8.73-8.87,8.8-3.77,0-7.55.05-11.32,0-5.47-.08-6.27-.86-6.29-6.45-.06-14.1,0-28.19,0-42.28,0-5.16-1-10.2-1.65-15.29-1-7.89-1.92-16,.95-23.85a4.11,4.11,0,0,0,.38-1.84c-1.18-9.8,1.46-19.6.1-29.41A5.44,5.44,0,0,1,858.05,654.14Z" transform="translate(-191.6 -192.27)"/><path d="M412.14,255.23h94.55c.16.17.31.35.47.53.82,1.65.68,3.43.64,5.16-.19,8.38.5,16.77-.39,25.13a3,3,0,0,1-.81,1.22,4.28,4.28,0,0,1-2.11.65c-29.25.16-58.51,0-87.77.08a8.25,8.25,0,0,1-4.3-.62,2.54,2.54,0,0,1-.91-1.11,166.18,166.18,0,0,1,.15-30.5Z" transform="translate(-191.6 -192.27)"/><path d="M858.05,654.14c0,7.51,0,15,0,22.53,0,1.69.49,3.53-1.41,4.77-1.24.81-.28,1.85.15,2.64,1.5,2.76.63,5-.15,8a48.05,48.05,0,0,0-.14,22.34,56.6,56.6,0,0,1,1.45,11.06c.28,15.73.2,31.48.05,47.22,0,3.15.89,4.17,4,4,5-.25,10.07,0,15.1-.08,4-.05,5.11-1.26,5.11-5.24q0-52.89,0-105.79c0-1.64-.06-3.09-1.31-4.51-1.73-2-.76-4.59-1-6.93,3.71-1.13,4.57.37,4.55,4q-.18,58.9,0,117.82c0,3.19-.84,3.95-3.91,3.86-9.31-.25-18.62-.18-27.92-.24l-.48-.57c-.75-1.67-.51-3.46-.51-5.2q0-26,0-52.05c0-1.69-.16-3.39,0-5.09q-.25-15.71,0-31.39c-.18-8.06,0-16.12-.08-24.17,0-1.63.17-3.29-.56-4.83-1.28-1.5-3-1-4.61-1-18.13-.1-36.26.12-54.39-.12a4.15,4.15,0,0,1-1.38-.41l-.54-.48c0-9.8,0-19.61-.14-29.41,0-2.09.67-2.47,2.57-2.47q28.86.11,57.71,0c2.08,0,2.78.48,2.74,2.68-.14,7.79-.06,15.59-.05,23.38C852.91,653.65,852.92,653.65,858.05,654.14Z" transform="translate(-191.6 -192.27)"/><path d="M632.86,349.54c9.42,0,18.84.11,28.26.08,1.83,0,2.94,0,2.93,2.48q-.19,46-.18,92l-.53.52c-1.5.82-3.15.71-4.77.72-6.87,0-13.74,0-20.61,0-1.85,0-3.78.21-5.38-1.11-1-1.46-.79-3.14-.79-4.75q0-42.45,0-84.89C631.8,352.83,631.43,351,632.86,349.54Z" transform="translate(-191.6 -192.27)"/><path d="M789.93,747.9l.15-62.78.49-.42a4.61,4.61,0,0,1,1.25-.42c.44-.08.89-.12,1.34-.17,7.89-.18,15.79-.07,23.68-.07a9.38,9.38,0,0,1,4.06.62,3.72,3.72,0,0,1,1.84,3c.14,9.29.22,18.57,0,27.86-1.13,3.82-.52,7.73-.59,11.6-.11,5.77,0,11.54,0,17.31,0,2.59-.78,4.44-3.78,4.47q-12.79.14-25.59,0A4.27,4.27,0,0,1,789.93,747.9Z" transform="translate(-191.6 -192.27)"/><path class="cls-1" d="M254.94,444.89a4.64,4.64,0,0,0-.64-.07v0l-.06-.8q0-45.06.08-90.12c0-1.38-.74-3,.78-4.15a3.49,3.49,0,0,1,.74,1.28,36.37,36.37,0,0,1,.38,6.76q0,39.19,0,78.41c0,1.87-.2,3.77.47,5.58,1,1.54,2.64,1.24,4.12,1.25,6.8,0,13.6,0,20.39,0,1.5,0,3-.19,4.46.52a2.36,2.36,0,0,1,1,1.08,13.72,13.72,0,0,1,.57,5.21q0,25.47,0,50.94c0,6.67-.6,7.23-7.39,7.25q-9.24,0-18.49,0c-1.75,0-3.53.13-5.17-.71a19.22,19.22,0,0,1-.77-6.62c.07-17.8-.15-35.6.13-53.41C255.54,446.43,255.67,445.57,254.94,444.89Z" transform="translate(-191.6 -192.27)"/><path d="M602,286.76l30.16.13c.57,1.07.32,2.23.32,3.34q0,28,0,55.9c0,4.18-.33,4.64-4.4,4.71-7.68.13-15.36.09-23,0a6.12,6.12,0,0,1-3.95-1c-1.2-1.35-1-3-1-4.64q0-26.87,0-53.73C600.09,289.71,599.45,287.55,602,286.76Z" transform="translate(-191.6 -192.27)"/><path d="M317.65,286.17l.12-61.93c5.1-.89,10.23-.25,15.35-.38,4.39-.12,8.79.09,13.18-.07,2.5-.09,3.41,1,3.43,3.3,0,.62,0,1.25,0,1.88q0,26.75,0,53.48a10.41,10.41,0,0,1-.4,3.72,2.68,2.68,0,0,1-1.6,1.46,10.22,10.22,0,0,1-2.13.37,9.62,9.62,0,0,1-1.42,0c-8.37-.24-16.76.41-25.13-.35A2.22,2.22,0,0,1,317.65,286.17Z" transform="translate(-191.6 -192.27)"/><path class="cls-2" d="M695.56,779.61q44.55.09,89.11.17c1.75,0,3.51-.17,5.26-.25,1.69,1.6,1.23,3.71,1.29,5.67.26,7.77-.41,15.55.4,23.3.83,1.34,2.2,1,3.41,1,6.91,0,13.82-.08,20.73.06,3.08.06,4.29-1.07,4.24-4.18-.12-7-.07-14.07,0-21.1,0-1.6-.28-3.31,1-4.64a.83.83,0,0,1,1.2.33,7,7,0,0,1,.72,3.62c.07,8.61,0,17.22.06,25.82a4.09,4.09,0,0,1-.39,1.82c-1.4,1-.75,2.55-.76,3.84-.06,8-.19,16.11,0,24.16.1,3.28-1,3.91-4.07,3.9q-105.12-.1-210.24,0c-2.14,0-4.28,0-6.42,0,1.27-1.58,3-.77,4.51-.77q105.36-.07,210.74.05c3.71,0,4.94-.71,4.75-4.65-.39-8-.19-16.11-.24-24.16-1.11-1.67-2.75-2-4.62-1.91-9.52.33-19,.11-28.58.31-7.09.14-14.27-.24-21.4-.26-22.3-.07-44.61,0-66.91-.07-1.3,0-2.77.6-3.91-.62a1.44,1.44,0,0,1,.86-1.11c1.7-.63,3.48-.42,5.23-.42q25.13,0,50.24,0c1.59,0,3.32.4,4.59-1a6.13,6.13,0,0,0,.7-3.63q0-9.4,0-18.79a6,6,0,0,0-.72-3.62c-1.31-1.41-3-1-4.62-1-18.17-.11-36.34.15-54.52-.14a3.73,3.73,0,0,1-1.34-.49A.94.94,0,0,1,695.56,779.61Z" transform="translate(-191.6 -192.27)"/><path class="cls-1" d="M821.71,687.46l-.84-2.13C821.94,684,823.5,684,825,684c7.87-.09,15.73-.06,23.6,0a6,6,0,0,1,4.21,1.23l0,31.72c-1.47,1.29-3.27,1.16-5,1.17-6.55,0-13.09,0-19.63,0-1.61,0-3.32-.26-4.64,1-.88,1.23-.62,2.64-.62,4,0,7.46,0,14.92,0,22.38,0,1.53-.27,3-1.82,3.77a250.91,250.91,0,0,1-29.79.14,4.68,4.68,0,0,1-1.24-.77c-20,0-40,0-60,.07-2.62,0-3.47-.67-3.47-3.36q.12-87.55.1-175.12c1.4,1.21.67,2.81.67,4.21q.06,84.54-.06,169.1c0,3.72,1,4.5,4.55,4.46,19.38-.2,38.75-.11,58.13-.12,9.54.05,19.09,0,28.64.18,2.36,0,2.63-1,2.62-3-.06-8.42,0-16.83,0-25.25a9.48,9.48,0,0,1,.56-4.44c1-4.66.19-9.38.43-14.07.19-3.72-.29-7.46.32-11.18A2.53,2.53,0,0,0,821.71,687.46Z" transform="translate(-191.6 -192.27)"/><path class="cls-1" d="M286,349.46q0-30.13-.11-60.29c0-1.38-.25-2.89,1.94-2.82,9.5.3,19-.53,28.51.43-.84,1.14-2.1,1.15-3.33,1.22-7.17.12-14.33.11-21.49,0-2.8-.05-3.73.92-3.69,3.71.29,18.35.08,36.7.14,55,.41,2.16,2.12,1.75,3.56,1.75,7.11,0,14.22,0,21.33,0,1.61,0,3.26-.13,4.73.79a1.9,1.9,0,0,1,.6,1.24c-.3,8.44-.05,16.87-.14,25.31-.06,5.19-.65,5.79-5.94,5.82-6.8,0-13.6.06-20.4,0-4.25,0-4.55-.39-4.56-4.48,0-6.77,0-13.55,0-18.38.33,6.22-.59,14.41.4,22.58.54,3,.25,6,.26,9q0,23.91,0,47.84c0,1.74.21,3.52-.44,5.22a1.42,1.42,0,0,1-1.15.85l-.34-.32c-1.21-1.34-1.12-3-1.09-4.64.46-28.62-.16-57.23,0-85.85a13.77,13.77,0,0,1,.45-2.84A8.91,8.91,0,0,1,286,349.46Z" transform="translate(-191.6 -192.27)"/><path class="cls-1" d="M601.27,349.51c9.42.05,18.84,0,28.26.22,2.78.07,2.63-1.41,2.62-3.28q0-29.77,0-59.56c1.4.72.72,2,.72,3q.06,29.82,0,59.63c-.08,6.65-.24,13.29-.23,19.94q.09,37.27.26,74.54c.24.53.07.85-.5,1a2.75,2.75,0,0,1-1.29-2.4c-.16-19.63,0-39.26-.06-58.9a8.45,8.45,0,0,1,.24-2.24c1-4.36.32-8.77.42-13.16.12-5.14,0-10.28,0-15.42,0,8.55-.05,17.1,0,25.65,0,2.11-.93,3.06-2.87,3.09-8.19.17-16.37.19-24.55,0-3.11-.08-3.48-2.33-3.5-4.78-.06-8.44.07-16.88-.07-25.31a3.18,3.18,0,0,1,.07-1.44Z" transform="translate(-191.6 -192.27)"/><path class="cls-1" d="M317.61,810.57c-.87,1.73-2.46.83-3.66.83-18.12,0-36.25.06-54.37-.24-4-.06-4.74,1.15-4.64,4.82.25,8.8,0,17.62,0,26.43-1.2-1-.62-2.34-.62-3.52-.07-9.18-.06-18.36-.07-27.54-.75-1.89-.16-3.76.08-5.63.74-8.17.39-16.35.2-24.53a3.1,3.1,0,0,1,.16-1.35,2.29,2.29,0,0,1,1.06-.91c9.27-1,18.56-.46,27.84-.3,3,0,3.51,2.39,3.55,4.82.11,6.91,0,13.82.06,20.73,0,1.61-.25,3.3.95,4.66,1.32,1,2.87.69,4.34.72,8,.17,15.95-.31,23.93.26A3.53,3.53,0,0,1,317.61,810.57Z" transform="translate(-191.6 -192.27)"/><path class="cls-3" d="M254.93,780.6a.5.5,0,0,0,0,.55,159.86,159.86,0,0,1,0,25c-.46,1.72.13,3.59-.73,5.25-9.17,0-18.35-.13-27.51,0-2.67,0-3.68-.41-3.61-3.42.24-9.42.09-18.84.1-28.27h0a6,6,0,0,1,4.25-1.22c7.55,0,15.11-.08,22.66,0C252,778.5,254,778.29,254.93,780.6Z" transform="translate(-191.6 -192.27)"/><path d="M790.08,685.12c-9.91.09-19.82.16-29.72.28-1.49,0-1.94-.58-1.94-2q.08-13.75,0-27.5c0-1.51.56-2,2-2,9.89.2,19.79-.44,29.68.35l-.09-.1c1.18,1.33,1.26,3,1.26,4.61,0,7.52.14,15-.15,22.56-.05,1.39-.07,2.78-1.11,3.88Z" transform="translate(-191.6 -192.27)"/><path class="cls-3" d="M822.6,811.28c-.93-.71-.89-1.72-.89-2.74q.06-14.35.11-28.69c.81-1.21,2.12-1.34,3.36-1.34,8.55,0,17.11-.35,25.66.17a4.17,4.17,0,0,1,2,1l-.1-.08c.07,9.81.07,19.62.26,29.43,0,2.32-1.11,2.3-2.78,2.29C841,811.27,831.8,811.28,822.6,811.28Z" transform="translate(-191.6 -192.27)"/><path d="M412.07,224.29q0,15.48.07,30.94l.07-.07c-1.44,1.29-3.22,1.23-5,1.23-7.12,0-14.24.05-21.36,0-2.1,0-4.31.14-5.84-1.81-.84-1.5-.65-3.15-.66-4.76q0-10.5,0-21c0-1.6-.24-3.28.86-4.69A270.24,270.24,0,0,1,412.07,224.29Z" transform="translate(-191.6 -192.27)"/><path class="cls-1" d="M602,286.76c-1.29.71-.93,1.94-.93,3q.11,29.87.23,59.73l-.32.27c-.83-.14-1.16-.75-1.4-1.45-.56-8-.1-16-.27-24,0-1.47.34-3-.77-4.31-1.4-1.17-3.09-.88-4.69-.89-6.52-.05-13.05,0-19.57,0-5.13-.07-6-.9-6-5.87,0-8.27-.21-16.55.11-24.82a4.49,4.49,0,0,1,.67-2c1.5-1.19,3.07-.37,4.62-.16,8.11.77,16.24.31,24.36.23a2,2,0,0,1,1.22.56c1.17,2.1.73,4.41.76,6.62.08,7.07,0,14.15.18,21.22.29.48.88-.21.44,0-.19.11-.32.06-.34-.16-.65-9.1.17-18.23-.45-27.33.16-.72.41-1.34,1.33-1.26Z" transform="translate(-191.6 -192.27)"/><path class="cls-1" d="M317.65,286.17l.82.8a187.08,187.08,0,0,0,26.47-.07l.74,0c.51.39,1,.8,1.51,0l1.39-.16.66.3c1.27,1.12,1.35,2.66,1.36,4.17.09,7.29.16,14.59,0,21.88-.13,5.16-.95,5.91-6,6-8.18.09-16.35-.05-24.53.07a4.24,4.24,0,0,1-2.54-.5,2.91,2.91,0,0,1-.73-1.71c-.08-10.06-.39-20.11.09-30.16Z" transform="translate(-191.6 -192.27)"/><path d="M506.69,255.23q0-15.49,0-31c5.1-.91,10.25-.25,15.37-.39,4.4-.12,8.8,0,13.2,0,1.68,0,3.22.19,3.25,2.2.13,9.54.61,19.09-.27,28.62,0,.23-.25.43-.38.65-1.36,1.13-3,1.09-4.62,1.1q-11,.08-22.06,0c-1.63,0-3.26-.06-4.58-1.24Z" transform="translate(-191.6 -192.27)"/><path d="M349.51,192.52c9.66-.06,19.32-.05,29-.25,2.49-.05,2.13,1.35,2.13,2.84q0,13.74,0,27.49c-.43,2.08-2.16,1.85-3.58,1.87q-12.09.14-24.17,0c-2,0-3.78-.15-3.75-3,.09-9.31,0-18.63,0-27.94A2.48,2.48,0,0,1,349.51,192.52Z" transform="translate(-191.6 -192.27)"/><path d="M538.43,192.51c9.67-.06,19.34,0,29-.24,2.56-.05,2.09,1.45,2.09,2.89q0,14.15,0,28.27c-1.19,1.26-2.76,1.06-4.24,1.07q-11.28.06-22.56,0c-4.52,0-4.7-.26-4.71-4.63,0-8,0-16,0-24.07C538,194.7,537.72,193.54,538.43,192.51Z" transform="translate(-191.6 -192.27)"/><path d="M601.1,286.17l-.73.8a1.07,1.07,0,0,1-1.53-.05h-.75a166.1,166.1,0,0,1-24.94,0c-1.21-.37-2.64.26-3.67-.85-1.15-.89-1.14-2.19-1.14-3.43,0-18.45-.1-36.9,0-55.35a5.81,5.81,0,0,1,.34-1.84,2.44,2.44,0,0,1,3-1.42c2.51.86,1.85,3,1.85,4.79q0,23.81,0,47.6c0,.76,0,1.51,0,2.27.09,5.8.56,6.29,6.23,6.31,4.28,0,8.56-.05,12.84,0,2.77,0,4.2-1.14,4.49-3.91a79.18,79.18,0,0,0,.54-8.28c-.06-15.24.07-30.48-.08-45.71a8,8,0,0,1,.22-2.63c1-1,2.07-.83,3.17-.19Q601,255.24,601.1,286.17Z" transform="translate(-191.6 -192.27)"/><path d="M286,349.46l-.09,1c-9.29.81-18.58.15-27.88.37l24.1,0c1.59,0,3.38-.4,3.88,1.87q0,16,0,32.07,0,29.63-.11,59.26l-29.22.08c-.62,0-1.27.1-1.47-.72,1.43-1.4,3.27-1.13,5-1.14,5.78-.06,11.56-.07,17.34,0,2.66,0,3.87-.82,4.58-3.66a50.81,50.81,0,0,0,1.23-12.68q0-17.91,0-35.82a20.3,20.3,0,0,0-1.35-7.69c-1.39-3.53-.58-7.44-.85-11.18-.3-4.25-.08-8.54-.07-12.81,0-5.29,0-5.31-5.45-5.3-5.65,0-11.31-.14-17,.14-2,.1-3.47-.38-3.44-2.77,0-.23-.07-.45-.1-.68Z" transform="translate(-191.6 -192.27)"/><path d="M316.87,286.78c1.42,1,.75,2.52.76,3.81.08,9.36.09,18.73.13,28.09a4.46,4.46,0,0,1,1.13,3.46c.09,8,.11,16,0,24a4.09,4.09,0,0,1-1.25,3.4c-9.56,0-19.11,0-28.66.13-1.68,0-2.75-.29-2.3-2.29,1.26-1.39,2.91-1.24,4.56-1.2,5.8.13,11.59.08,17.38,0s6.43-.78,6.46-6.63c0-3.28,0-6.55,0-9.82s.06-6.25-2.37-8.83a4.81,4.81,0,0,1-.8-4.66c1.72-6.45.64-13,.83-19.54.08-2.83-1.61-4-4.31-4.09-5.17-.1-10.33.07-15.49-.1-1.82-.06-4.79.65-4.75-2.14,0-2.56,2.9-2.27,4.86-2.3,5.41-.09,10.82,0,16.24,0,1.37,0,2.8.16,3.9-1l3.13-.33A1.28,1.28,0,0,0,316.87,286.78Z" transform="translate(-191.6 -192.27)"/><path class="cls-4" d="M663.87,444.07c9.31,0,18.62.15,27.92-.08,3.24-.08,3.81.94,3.81,4q-.17,59.43-.05,118.87c0,1.13.07,2.26.12,3.39l-.06.07a5.85,5.85,0,0,1-1.24.77c-9.26.62-18.53.26-27.8.19a3.32,3.32,0,0,1-1.76-.6.77.77,0,0,1-.1-1.21c1.6-1.37,3.56-1.05,5.42-1.06,7.89,0,15.79,0,23.9,0,.15.15.19-1,0-.5,0,.1-.08,0-.2,0-1.7-.55-1.38-1.91-1-3,.91-2.32.74-4.7.74-7.08q0-50.77,0-101.54c0-1.38,0-2.77,0-4.15-.1-4.22-.36-4.5-4.56-4.53-4.78,0-9.56,0-14.34,0-1.7,0-3.46,0-4.71-1.83,7-.51,14-.43,21.07-.48-6.32,0-12.65-.06-19,0-5.15.06-6.31,1.15-6.29,6.2,0,17.49.13,35,.09,52.46,0,20.38,0,40.76-.15,61.14,0,1.5.06,3.05-1,4.32a.76.76,0,0,1-1.23,0c-1.1-1.72-.74-3.66-.75-5.52,0-18.62,0-37.24,0-55.86l0-1.49c-.24-19.39-.08-38.78-.09-58.18a5.94,5.94,0,0,1,1.23-4.25Z" transform="translate(-191.6 -192.27)"/><path class="cls-5" d="M349.51,192.52q0,13.93,0,27.85c0,1.4-.54,3.12,2,3.1,9.15-.07,18.31,0,27.47,0a1.62,1.62,0,0,0,1.56-.83c1.05,1.34,2.54.81,3.85.82,8.12.05,16.25,0,24.37.07,1.09,0,2.53-.82,3.28.8l-31.48-.08a10.37,10.37,0,0,1-1.2.73c-8,.72-15.94.12-23.91.33-1.58,0-3.31-.41-4.46,1.2-.76,1.43-.48,3-.48,4.46q0,25.11,0,50.21c0,1.75.22,3.53-.47,5.23a1.36,1.36,0,0,1-1.16.78l-.31-.39q.1-22.59.21-45.17c0-4.77-.13-9.54,0-14.3.1-2.53-.8-3.17-3.21-3.13-9.28.13-18.57.07-27.86.08.81-1.55,2.23-.74,3.34-.75,8-.08,16.08-.2,24.11,0,3.1.09,3.71-1,3.64-3.8-.17-7.9-.09-15.82,0-23.73C348.84,194.84,348.22,193.46,349.51,192.52Z" transform="translate(-191.6 -192.27)"/><path class="cls-5" d="M601,224.29l-2.87,0a2.15,2.15,0,0,1-1.28.73c-8.4.28-16.83,1.3-25.17-.73a1.93,1.93,0,0,0-2.17.72,14.76,14.76,0,0,1-2,.2c-7.83,0-15.66,0-23.49,0-1.45,0-3-.33-4.1,1.13-1.06,5.86-.17,11.76-.49,17.62-.2,3.61.62,7.27-.62,10.82a.89.89,0,0,1-1.22.33c0-9.41,0-18.82.17-28.23.05-2.59-1.17-2.78-3.2-2.76-9.29.08-18.58.06-27.86.07.81-1.52,2.23-.75,3.34-.76,7.66-.07,15.33-.31,23,.07,4.14.21,4.93-1.24,4.79-5-.28-7.52-.12-15.06,0-22.6,0-1.14-.68-2.52.66-3.45,0,9.17.16,18.35,0,27.52-.07,2.94.92,3.53,3.62,3.49,9.17-.16,18.34-.08,27.52-.09,9.38,0,18.77,0,28.15,0C598.78,223.49,600.22,222.71,601,224.29Z" transform="translate(-191.6 -192.27)"/><path class="cls-6" d="M348.89,287.15a2,2,0,0,1,.61-.22c.66-1.31.33-2.72.33-4.07q0-26.9,0-53.8a13.2,13.2,0,0,1,.22-4.11c9.3-.78,18.61-.23,27.92-.28,2,.83,1.67,2.6,1.67,4.2,0,7.52,0,15,0,22.58,0,1.63-.13,3.29,1.27,4.52,1.22,3.28.6,6.7.67,10.06.1,4.88,0,9.77,0,14.65,0,4.57.43,5,4.9,5,6.77.07,13.54,0,20.3,0,1.87,0,3.79-.16,5.41,1.11h0c1.28,1.62,1.12,3.55,1.13,5.43,0,6.67,0,13.33,0,20,.05,4,.4,4.39,4.31,4.4q41.7.06,83.4,0c3.91,0,4.24-.4,4.28-4.42.07-6.66,0-13.33,0-20,0-1.88-.12-3.8,1.08-5.45h0c1.64-1.21,3.56-1.05,5.43-1.06,6.77,0,13.54,0,20.31,0,4.48,0,4.87-.46,4.91-5,.05-6.52,0-13,0-19.56,0-1.74-.13-3.53.78-5.14,1.24-1.09.75-2.55.78-3.87.21-9.07-.34-18.16.3-27.23,9.78-.61,19.57-.25,29.36-.19.52,3.59.16,7.2.17,10.81,0,15.94,0,31.88,0,47.82,0,1.47-.38,3,.71,4.35,0,8.93.17,17.86,0,26.79-.05,2.87.9,3.64,3.67,3.58,7.92-.17,15.85-.09,23.77,0,1.18,0,2.55-.54,3.53.67a236.22,236.22,0,0,0,0,30.22l.57.87c.06.21.11.42.16.62.82,7.9.22,15.82.35,23.73.1,6.89,0,6.83,6.92,6.91,7.67.09,15.35-.37,23,.25.6,1.32.3,2.72.3,4.08q0,26.89,0,53.8a11.28,11.28,0,0,0,.25,4.09l.82,1.72c1.53,2.1,1.23,4.56,1.24,6.91,0,16.09,0,32.18,0,48.26,0,5.34.14,5.46,5.5,5.48,6.41,0,12.82,0,19.22,0,1.75,0,3.56-.13,5,1.22a.67.67,0,0,1,0,.72c-1.15,1.3-.69,2.88-.69,4.34q0,26.38,0,52.77c0,1.62.25,3.27-.33,4.85-1.64,2.08-4,1.85-6.25,1.9-6.16.13-12.32.11-18.48,0-2.78-.05-4.13.69-4,3.82.22,6.78,0,13.58.09,20.37,0,3.9.49,4.37,4.34,4.42,6.66.1,13.33,0,20,0,5.83,0,6.57.77,6.62,6.48,0,6.54,0,13.08,0,19.62,0,5.5.12,5.6,5.78,5.62,6.16,0,12.32,0,18.48,0,1.74,0,3.56-.16,5,1.1,1,2.68.48,5.45.46,8.17-.07,7.61.42,15.23-.27,22.83-1.65,2.38-4.2,2-6.53,2q-24.51.07-49,0c-4.87,0-4.88,0-4.89,4.7q0,9.24,0,18.48c0,5.28.12,5.38,5.58,5.4,6.53,0,13.07-.07,19.61,0,4.84.08,5.7.95,5.76,5.8.1,7,0,14.08,0,21.12.05,4.28.5,4.71,4.83,4.76,6.28.08,12.57,0,18.86,0,1.86,0,3.8-.21,5.46,1,1.16,6.82.61,13.66.32,20.5-1.38,2.17-3.63,2-5.73,2-6.26.08-12.53,0-18.8,0-4.68,0-4.94.28-5,4.85,0,6.4,0,12.79,0,19.18a14.12,14.12,0,0,1-.52,5.21,2.4,2.4,0,0,1-.94,1c-3.41,1.23-7,.57-10.44.66-4.76.11-9.53,0-14.29,0-4.45,0-4.73.3-4.77,4.65,0,6.77,0,13.54,0,20.31,0,1.72.25,3.57-1.3,4.9-1.68-.72-3.39,0-5.08,0-8.43,0-16.86-.17-25.29.05a1.17,1.17,0,0,1-1.22-.1c0-29.91-.11-59.82,0-89.73,0-3.31-.69-4.25-4.09-4.12-8.16.29-16.34.21-24.5,0-2.55,0-3.37.85-3.22,3.15-1.19,1.57-.7,3.41-.71,5.12q0,55.32,0,110.65a21.09,21.09,0,0,1-.24,5.26c-.78,1.48-2.19,1-3.37,1-7.53,0-15.07-.14-22.6.1-3.13.1-3.68-1-3.67-3.85q.13-42.39,0-84.78c0-1.34.42-2.76-.43-4-.67-1.27-1.88-1-3-1-8.56,0-17.11.08-25.67-.06-2.47,0-3.14.68-3.13,3.16.11,18.63-.06,37.25.16,55.88,0,3.51-1,4-4.2,4q-43.23-.2-86.46,0c-3,0-4-.58-4-3.84.17-18.62,0-37.25.14-55.87,0-2.69-.77-3.36-3.36-3.36-8,0-16.09.45-24.12-.25,3.68-1.07,7.44-.35,11.16-.47,4.14-.13,8.28-.07,12.43,0,.5,0-.08-.69.07-.21,0,.1-.08.16-.32.16-7.79-.1-15.58.08-23.37-.09-.51,0,.16,0-.32.11-.29.07-.23.31.11.48l-4,.51c-1.53.19-.76,1.32-.76,2,0,28.8,0,57.6,0,86.39a11.67,11.67,0,0,1-.32,4.12c-1,1.44-2.53.85-3.83.86-7,.06-14.11,0-21.16,0-4.51,0-4.52,0-4.52-4.4q0-58.37,0-116.73c0-1.27.72-2.76-.6-3.87-9.67,0-19.35,0-29-.18-2.42,0-2.57,1-2.56,2.92.07,9.93.05,19.86,0,29.78q0,30.54-.06,61.07c-.22,0-.43,0-.65,0a4,4,0,0,1-.35-2.56q0-43.26,0-86.51c0-.87-.61-2,.11-2.41-.78.61-.13,1.91-.13,3q-.06,41.92,0,83.86c0,4.28,0,4.29-4.25,4.29-7.3,0-14.61,0-21.91,0-1.23,0-2.52-.35-3.69.38-1.19-1-.65-2.35-.66-3.53-.05-7.55-.23-15.1.05-22.64.15-3.71-.67-5-4.69-4.89-8.79.31-17.61,0-26.41,0-1.39-1.43-1.16-3.25-1.17-5,0-6.52,0-13,0-19.57,0-5-.2-5.18-5.37-5.22-6,0-12,.14-18-.09-2.47-.1-5.09.08-7.11-1.85q0-10.18.05-20.35c1.43-1.36,3.24-1.2,5-1.21,6.42,0,12.84,0,19.25,0,6.13,0,6.22-.12,6.23-6.41s0-12.59,0-18.88c0-5.63.75-6.37,6.27-6.42,6.54-.07,13.08,0,19.63,0,4.7,0,5-.35,5.06-4.85q.06-9.63,0-19.26c0-4.42-.39-4.63-4.76-4.6-17.24.15-34.48.22-51.72-.05-1.82,0-3.88.31-5-1.81l0-30.91a.64.64,0,0,1,.9,0c.22.56,0,1.17.21,1.74-.18-1.25.06-2.27,1.47-2.65,7.41-.77,14.84-.21,22.26-.36,5.29-.1,5.58-.3,5.61-5.52.05-6.92-.06-13.85.05-20.77.07-4.47.92-5.33,5.33-5.42,6.92-.12,13.85,0,20.77,0,4.45,0,4.8-.37,4.83-4.67.05-6.3,0-12.59,0-18.88,0-4.69-.3-5-4.87-5-6,0-12.08,0-18.12,0-2,0-4.07,0-5.66-1.57-1.36-1.59-1.12-3.51-1.12-5.38,0-18.79.05-37.59,0-56.38a1.53,1.53,0,0,1,0-1.35h0q.38-.52.78,0c8.94,0,17.88-.05,26.81.16,3,.07,3.54-1,3.52-3.73-.1-17.75-.06-35.5,0-53.25,0-1.88.11-3.77.17-5.65a1.06,1.06,0,0,1,.54-.21c.71-1.3.36-2.71.36-4.06q0-27.29,0-54.56a12.9,12.9,0,0,1,.22-4.11c6.35-.81,12.73-.11,19.1-.37,3.47-.14,8,1.48,10.14-.62,2.32-2.29.58-6.89.73-10.47.27-6.5-.35-13,.31-19.5v-.88l.13-30.86c1.86-1.14,3.93-.66,5.91-.67,7.55-.05,15.1,0,22.66,0,1.35,0,2.85.3,2.87-1.85C349.31,306.47,349.87,296.8,348.89,287.15Z" transform="translate(-191.6 -192.27)"/><path class="cls-2" d="M601.13,810.62a4.41,4.41,0,0,0,.73,0c4.44-.88,8.94-.35,13.4-.35,5.61,0,11.22-.42,16.82.25,1.16-1,.64-2.34.65-3.52,0-7.89.11-15.78,0-23.66-.05-2.63.47-3.83,3.47-3.76,9.26.21,18.52.13,27.79.16,1.11,1.23,1.07,2.78,1.08,4.28.05,7.66.1,15.33,0,23-.07,4.55-.84,5-5.45,4.79-7.29-.29-14.58,0-21.87-.11-1.36,0-2.77.3-4.09-.31-9.73,0-19.46.05-29.2,0C603.33,811.42,601.89,812.19,601.13,810.62Z" transform="translate(-191.6 -192.27)"/><path d="M633.62,811.43c9,0,18-.21,27.06-.09,2.65,0,3.41-.73,3.37-3.36-.16-9.4-.08-18.8-.09-28.2h0c1.14-1.24,2.66-1.31,4.16-1.32,7.76-.06,15.51-.05,23.26,0a5.93,5.93,0,0,1,4.22,1.23l0-.06,0,.8a6,6,0,0,1,1.19,4.23q.06,10.88,0,21.74a6,6,0,0,1-1.18,4.24c.93,1.66,2.5.79,3.72.79,28.83,0,57.66-.11,86.49-.13,10.82,0,21.65.11,32.47.17,1.49,0,3.27-.35,2.65,2.2-2.47-1.41-5.14-1.6-7.94-1.55-6.17.12-12.34,0-18.51.06-2.09,0-4.3-.52-6.15,1.08a1.68,1.68,0,0,1-1.42.2c-7.83-2.88-16-1.49-23.82-.88-3.71.29-7.08-.39-10.6-.4-17.76,0-35.52,0-53.28,0-1.36,0-2.71-.15-4,.71-2.91,1.94-4.28,0-4.75-2.44-.31-1.67-.73-2.61-2.4-3.29-2.21-.88-2.33-3.16-2.26-5.15.15-4.51-.63-9.05.6-13.52.5-1.83-.28-2.83-2.35-2.79q-6.24.12-12.47,0c-1.79,0-2.16.8-2.56,2.43-1.17,4.87-.31,9.78-.67,14.65-.16,2.22-.93,4.16,1.63,6,1.53,1.1.21,3.29-1.76,3.3-11.33.06-22.67-.07-34-.17C634,811.88,633.81,811.59,633.62,811.43Z" transform="translate(-191.6 -192.27)"/><path class="cls-7" d="M567.86,840.86q0-59.65-.16-119.3c0-1.59.55-1.63,1.64-1.62.07,1.13.21,2.25.21,3.38q0,57.46,0,114.92c0,.87-.12,1.74-.19,2.62A1,1,0,0,1,567.86,840.86Z" transform="translate(-191.6 -192.27)"/><path class="cls-7" d="M378.93,840.86q0-44.52,0-89.05c0-1.49-.22-3,.64-4.41.31-.49.58-.37.74,0a4.1,4.1,0,0,1,.12,1.12c.07,1.41.19,2.83.19,4.24q0,43.1,0,86.21c0,.87-.11,1.74-.18,2.61C379.59,842.08,379.31,841.37,378.93,840.86Z" transform="translate(-191.6 -192.27)"/><path class="cls-8" d="M378.93,840.86l1.52.75c-.52,1.86-2.06,1-3.13,1.06-8.31.06-16.62-.1-24.93.1-2.79.07-3.24-.87-3.24-3.39q.12-61.2.06-122.4c1.79,1.18,1,3,1,4.5q.07,57.38,0,114.75c0,6-.54,5.35,5.55,5.37q9.81,0,19.63,0C376.6,841.58,378,842,378.93,840.86Z" transform="translate(-191.6 -192.27)"/><path class="cls-9" d="M567.86,840.86h1.5c.54,1.76-.56,1.85-1.83,1.84-9,0-18.11-.07-27.16,0-3.08,0-2.22-2-2.22-3.6q0-40.35,0-80.71c0-3,.13-6,.2-9,1.38,1.21.78,2.83.79,4.26,0,27.91.07,55.82,0,83.73,0,3.21.65,4.44,4.12,4.3,7-.28,14.08-.06,21.12-.1C565.53,841.59,566.87,842,567.86,840.86Z" transform="translate(-191.6 -192.27)"/><path class="cls-10" d="M384.48,748,382,747.6l0-.32h29.12V748h-26.7Z" transform="translate(-191.6 -192.27)"/><path class="cls-6" d="M851.25,779.6l-29.43.25a.31.31,0,0,0-.08-.42c-1.87,1.1-1.43,3-1.41,4.62.06,7.66-.47,15.34.27,23,.15,1.62.41,3.31-2.27,3.23-9.42-.28-18.86.39-28.27-.4q-.06-15.18-.13-30.34l.09-30.87.89.19q15,.49,30,0c1.32-.81.83-2.18,1.07-3.33.35-9.25.32-18.5,0-27.75.66-1.43,1.95-.84,3-.85,9.27,0,18.55,0,27.82,0l0,4.53c-1,1-.73,2.36-.73,3.59,0,16.87-.13,33.74.09,50.61A6,6,0,0,1,851.25,779.6Z" transform="translate(-191.6 -192.27)"/><path class="cls-2" d="M694.09,633.11c-8.93,0-17.87-.14-26.8-.05-2.58,0-3.51-.71-3.46-3.4.15-8.3,0-16.61.11-24.91,0-2.62-.7-3.51-3.39-3.46-8.18.15-16.36,0-24.54.1-2.38,0-3.34-.59-3.31-3.16.13-8.68.15-17.36-.05-26-.06-2.42,1.27-2,2.57-2,7,0,14.09,0,21.14,0,2,0,4-.37,6-.57a1.09,1.09,0,0,1,1.61-.07l.67,0,0,0a3.64,3.64,0,0,0,0,.66c2.12,1,4.37.42,6.55.46,7.46.14,14.93-.09,22.39.14a1.36,1.36,0,0,0,1.28-.52h.79c0,22.45.08,44.91.06,67.37,0,9-.17,18.05-.27,27.08-1-.1-.92-.85-.94-1.54,0-8.81,0-17.61,0-26.41C694.43,635.57,694.76,634.28,694.09,633.11Z" transform="translate(-191.6 -192.27)"/><path class="cls-2" d="M694.83,664l.57.71q.06,31.37.1,62.75a1,1,0,0,1-.7.43,1.12,1.12,0,0,1-.72-.39c-8.68,0-17.36-.21-26,0-3.4.08-4.31-1.1-4.23-4.34.2-7.92-.05-15.85.13-23.77.06-2.76-.67-3.75-3.56-3.68-7.92.18-15.84,0-23.76.12-2.78,0-4-.48-4-3.7.23-8.16.14-16.34,0-24.51,0-2.33.34-3.1,3-3.07,18.1.18,36.21.09,54.32.1a7.06,7.06,0,0,0,4-.69C694.36,663.66,694.61,663.67,694.83,664Z" transform="translate(-191.6 -192.27)"/><path class="cls-1" d="M694.84,727.49h.66q0,21.76,0,43.54c0,2.87.08,5.75.11,8.63l-31.64.1c0-9.3,0-18.6-.13-27.89,0-2.71.93-3.42,3.49-3.37,7.42.13,14.83,0,22.24,0A9.89,9.89,0,0,0,694,748c1-4.45.16-9,.45-13.43C694.62,732.22,694,729.82,694.84,727.49Z" transform="translate(-191.6 -192.27)"/><path class="cls-1" d="M255,506.81l.27.82c.32,13.58.06,27.16.13,40.75,0,5.66,0,11.33,0,17,0,1.54,0,3,1.16,4.23,4.45,1.29,9,.42,13.5.58s8.81.11,13.21,0c2.12,0,2.87.71,2.85,2.84-.09,8.43-.12,16.86,0,25.29,0,2.63-1.05,3.11-3.38,3.08-8.05-.12-16.11.06-24.16-.1-2.76-.06-3.76.7-3.69,3.59.17,7.92-.12,15.85.14,23.77.11,3.61-1.17,4.5-4.57,4.43-8.55-.19-17.11,0-25.66,0-.21.3-.44.34-.71.09l-.71-.1q0-30.27-.1-60.54c0-.82-.33-1.8.73-2.31,2.29,1,4.7.39,7,.43,6.55.1,13.1.06,19.64,0,1.19,0,2.52.53,3.57-.53a5.66,5.66,0,0,0-.15-.59,1.78,1.78,0,0,1,.15-2.27q.09-28.24.19-56.49C254.42,509.46,254,508,255,506.81Z" transform="translate(-191.6 -192.27)"/><path class="cls-1" d="M223.31,664c2.5,1.21,5.19.59,7.76.61,15.86.12,31.71.07,47.56,0,7.41,0,7.41,0,7.41,7.31,0,6.66-.14,13.34.06,20,.09,2.9-.65,4-3.74,3.89-7.67-.21-15.36.14-23-.15-3.77-.15-4.62,1.16-4.51,4.68.26,7.79,0,15.6.13,23.4,0,2.78-.88,3.75-3.7,3.71-9.3-.11-18.61,0-27.92,0Z" transform="translate(-191.6 -192.27)"/><path d="M227.79,506.85q0-25.86,0-51.71c0-6.53-.7-5.83,5.93-5.68,4.22.1,8.47-.79,12.68.83,2.55,1,3.38,2.27,3.36,4.95-.12,14.84-.05,29.69-.07,44.54,0,2-.13,4.05,1.78,5.44,1.07.78.92,1.62.09,2.53-1.93,2.13-1.9,4.74-1.89,7.42.06,14.34,0,28.68,0,43,0,4.4-1.63,6-6.14,6.07-4,0-8.06-.19-12.07.07-3.11.21-3.78-1-3.76-3.89C227.85,542.58,227.79,524.71,227.79,506.85Z" transform="translate(-191.6 -192.27)"/><path class="cls-1" d="M223.29,747.89c9.22,1.22,18.49.6,27.73.58,3.19,0,4,1,3.95,4.08-.14,9,0,18,.05,27.05l-.09,1c-1.11-1.17-2.56-.79-3.9-.8-9.27-.06-18.53-.08-27.8-.12Z" transform="translate(-191.6 -192.27)"/><path class="cls-11" d="M255.76,506.79l-.78,0c-.37-20.65-.29-41.29,0-61.93,2,.1,1.06,1.6,1.05,2.5-.05,17.84-.09,35.69-.31,53.53C255.66,502.88,257.27,504.83,255.76,506.79Z" transform="translate(-191.6 -192.27)"/><path class="cls-12" d="M254.22,570.15c-.51.94-1.41.92-2.29.92h-25.6a2.51,2.51,0,0,1-2.36-.83Z" transform="translate(-191.6 -192.27)"/><path d="M254.3,444.82c-.55.26-1.09.75-1.63.75a220.3,220.3,0,0,1-23.25-.73H254.3Z" transform="translate(-191.6 -192.27)"/><path d="M254.22,567.29a3,3,0,0,1-.15,2.27c-.66-.08-1.64.18-1.75-.71C252.18,567.6,253.26,567.42,254.22,567.29Z" transform="translate(-191.6 -192.27)"/><path class="cls-2" d="M506.52,286.8c0,9.43,0,18.86.15,28.29,0,2.41-.93,2.93-3.12,2.93q-44.13-.07-88.27,0c-2.56,0-3.19-.9-3.15-3.29.13-9.3.1-18.6.13-27.91l3.7.08a3.84,3.84,0,0,0,2.55.39c28.28,0,56.55,0,84.83,0a2.79,2.79,0,0,0,1.79-.37Z" transform="translate(-191.6 -192.27)"/><path class="cls-1" d="M412.27,286.85c-9.3,0-18.59-.08-27.89.06-2.91,0-4-.83-3.94-3.85.13-9,0-18.08,0-27.13a1.13,1.13,0,0,1,.16-1.62c.67,1,1.66.93,2.69.92l29-.07Z" transform="translate(-191.6 -192.27)"/><path class="cls-2" d="M538.4,255.94c0,9-.17,18.08,0,27.12,0,3-1,3.9-4,3.85-9.29-.16-18.59-.09-27.88-.11l.09-31.64h31a4,4,0,0,0,.69,0c.27.13.38.29.32.47S538.48,255.94,538.4,255.94Z" transform="translate(-191.6 -192.27)"/><path class="cls-11" d="M505.13,287c-.08.51-.23,1-.87,1q-42.57-.13-85.14-.29c-1.1,0-2.3.31-3.16-.75q31.05-.07,62.09-.14C487.08,286.77,496.11,286.9,505.13,287Z" transform="translate(-191.6 -192.27)"/><path class="cls-6" d="M790,685.22V654.17h.8c.73.71,1.62.45,2.49.45,18.32-.05,36.64,0,55,0a26,26,0,0,1,4.49.37l.06,30.25-31.92.13-29.32-.16a40.69,40.69,0,0,1-.53-4.67c-.15-.48-.52.3-.08,0,.12-.07.24,0,.2.28-.22,1.44.59,2.95-.34,4.32Z" transform="translate(-191.6 -192.27)"/><path class="cls-7" d="M851.25,779.6c0-18.48,0-37,.08-55.46,0-.83-1.63-3.21,1.41-2.69l.06,58.23Z" transform="translate(-191.6 -192.27)"/><path class="cls-13" d="M852.73,655c-17.18,0-34.36,0-51.53,0-3,0-6-.47-9,.38-1,.3-1.3-.38-1.42-1.2l40.36-.21c6.17,0,12.34-.06,18.5,0C850.65,654,852.24,653,852.73,655Z" transform="translate(-191.6 -192.27)"/><path class="cls-1" d="M663.77,506.87c-9.17,0-18.33-.09-27.5.08-2.86.06-3.6-.88-3.58-3.65.11-17.58.06-35.16.06-52.74,0-1.86,0-3.72,0-5.58,0-.32.06-.64.1-1l31,.06Z" transform="translate(-191.6 -192.27)"/><path class="cls-14" d="M821.71,687.46c.61,0,2-1.29,1.7.32-1.69,8.77-.45,17.62-1,26.41,0,.43-.47.83-.72,1.24Q821.72,701.45,821.71,687.46Z" transform="translate(-191.6 -192.27)"/><path class="cls-15" d="M790.8,685.14v-5.23c.65,1.73,1.33,3.43.75,5.26Z" transform="translate(-191.6 -192.27)"/><path d="M255.2,350.45c.56,1.08,1,2.05,2.65,1.86,7.4-.89,14.83-.17,22.24-.4,1.7-.05,2.42,0,2.34,2.43-.23,7.26-.15,14.53.17,21.82.28,6.32,2.84,12.23,2,18.75-.78,6.33-.17,12.83-.17,19.25s.12,13.1-.06,19.64c-.08,2.79-1.84,5.28-1.65,8.28.11,1.7-1.87,1.25-3,1.26-8.18,0-16.36,0-24.55,0q-.08-34.75-.14-69.5C255,366.06,255.15,358.25,255.2,350.45Z" transform="translate(-191.6 -192.27)"/><path class="cls-14" d="M344.94,286.9c-.84,1.08-2,.76-3.13.77q-11.24.16-22.47.29c-.64,0-.77-.49-.87-1Z" transform="translate(-191.6 -192.27)"/><path class="cls-14" d="M347.19,286.92l.45,1.63c-1.2.12-1.45-.9-2-1.63Z" transform="translate(-191.6 -192.27)"/><path class="cls-6" d="M695.59,810.62V780.41l.77,0c1.32.65,2.72.33,4.07.33,17.93,0,35.85,0,53.77,0,1.35,0,2.76-.34,4.06.33q0,14.37,0,28.73c-1.31.7-2.71.35-4.07.35-18.21,0-36.41,0-54.62,0-1.09,0-2.26-.42-3.28.37H696Z" transform="translate(-191.6 -192.27)"/><path class="cls-16" d="M790.06,809.87h13c4.64,0,9.29-.12,13.93,0,3.06.11,3.27-1,3-3.84-.77-8.46-1.1-17,.23-25.44.13-.85.08-2,1.51-1.2-1.13,1.15-.7,2.61-.7,4,0,7.92-.12,15.84,0,23.75,0,2.66-.47,3.78-3.47,3.7-8.16-.22-16.34-.06-24.51-.1C792,810.73,790.77,811.18,790.06,809.87Z" transform="translate(-191.6 -192.27)"/><path class="cls-17" d="M696.33,810.63c.1-.69.33-1,1.19-1q30.39.17,60.78.22c-.61,1.18-1.73.84-2.68.84Q726,810.7,696.33,810.63Z" transform="translate(-191.6 -192.27)"/><path class="cls-18" d="M758.26,781.14q-29.18,0-58.36,0c-1.19,0-2.54.47-3.54-.69l59.58-.05C756.79,780.39,757.74,780.11,758.26,781.14Z" transform="translate(-191.6 -192.27)"/><path class="cls-19" d="M820.89,748.86c-5,1.25-10.12.47-15.18.48s-9.9.74-14.8-.49Z" transform="translate(-191.6 -192.27)"/><path class="cls-13" d="M822,717.78c1.24,5.53.43,11.13.49,16.69,0,3.67.73,7.43-.5,11.06Q822,731.66,822,717.78Z" transform="translate(-191.6 -192.27)"/><path d="M313.19,287.11c.11,2.4-1.62,2.08-3.11,2.08h-17c-.89,0-1.77,0-2.65.05s-1.92.29-1.72,1.47c.17,1,1.19.73,1.88.73,5.16,0,10.32,0,15.48,0,7.86,0,7.86,0,7.86,8v12.09c0,.75.25,1.64-.05,2.24-1.83,3.63-1.76,6.74,2.07,9,.33,7.52.81,15.07-.31,22.52-.23,1.58-2.83,2.06-4.88,2-8-.1-16.06,0-24.1,0,0-19.38-.06-38.76-.17-58.15,0-2,.89-2.23,2.52-2.22C297.08,287.09,305.13,287.08,313.19,287.11Z" transform="translate(-191.6 -192.27)"/><path class="cls-20" d="M317.64,350.42c0,9.26,0,18.53.15,27.79,0,2.51-.85,3.21-3.26,3.18-9-.09-18,0-27,0q-.32.51-.72.06V353.63h.72V373.1c0,7.52,0,7.52,7.53,7.52,6,0,12.06-.18,18.08.07,3.27.14,4-1.06,3.93-4.09-.2-7.4-.09-14.82,0-22.23C317,353,316.51,351.58,317.64,350.42Z" transform="translate(-191.6 -192.27)"/><path class="cls-18" d="M286.77,381.46a1,1,0,0,1,.72-.06q0,29.4,0,58.79c0,1.32.49,2.8-.72,3.92Q286.77,412.79,286.77,381.46Z" transform="translate(-191.6 -192.27)"/><path d="M286,352.67c-1.09-1.56-2.68-1.54-4.36-1.53-6.91.05-13.82,0-20.73,0h-3.58v-.75h28.56C285.92,351.16,286,351.92,286,352.67Z" transform="translate(-191.6 -192.27)"/><path class="cls-20" d="M631.34,381.4c-8.89,0-17.78-.12-26.68,0-2.72,0-3.72-.68-3.66-3.58.19-9.14.09-18.28.11-27.43,1.24,1.12.72,2.6.73,3.92,0,7.54.13,15.09,0,22.64-.06,2.7.58,3.8,3.53,3.73,7.55-.2,15.1-.17,22.64,0,2.68.05,3.45-.86,3.41-3.46-.13-8.65,0-17.31.61-26v30.29A.39.39,0,0,1,631.34,381.4Z" transform="translate(-191.6 -192.27)"/><path class="cls-21" d="M631.34,381.4a.86.86,0,0,1,.66.15l0,61.72c-1.1-1.18-.6-2.63-.61-4Q631.32,410.36,631.34,381.4Z" transform="translate(-191.6 -192.27)"/><path class="cls-9" d="M286.73,810.64c1.1-1.27,2.59-.74,3.9-.74,7.3-.06,14.6-.18,21.88,0,3.12.1,3.76-1,3.75-3.9-.09-27.92-.05-55.84-.05-83.75v-3.72l.75,0v92Z" transform="translate(-191.6 -192.27)"/><path class="cls-22" d="M255,806.1c-.34-8.31-.31-16.63,0-25,.33.15.94.3.94.44q0,11.64-.22,23.26C255.67,805.27,255.22,805.68,255,806.1Z" transform="translate(-191.6 -192.27)"/><path class="cls-7" d="M380.56,254.31c-.05.54-.1,1.08-.16,1.62-2.08-.4-1.43-2.07-1.44-3.31,0-7.76,0-15.52,0-23.28,0-1.5.1-3-.77-4.36.33-.57,1.07-.25,1.47-.67l.95-.1Z" transform="translate(-191.6 -192.27)"/><path class="cls-7" d="M569.34,287.68c-1.07,0-1.65,0-1.64-1.61.14-19,.13-38.06.15-57.1a7.15,7.15,0,0,1,.77-4c-.26-.14-.35-.29-.27-.44s.16-.24.24-.24l.91.75,0,61C569.43,286.6,569.39,287.14,569.34,287.68Z" transform="translate(-191.6 -192.27)"/><path class="cls-22" d="M598.84,286.92l1.53.05v28.57h-.77v-20.1A36.52,36.52,0,0,0,598.84,286.92Z" transform="translate(-191.6 -192.27)"/><path class="cls-23" d="M600.38,348.91a121.75,121.75,0,0,1,0-30.22Q600.36,333.79,600.38,348.91Z" transform="translate(-191.6 -192.27)"/><path class="cls-14" d="M573.15,286.91h24.94c-.83,1.07-2,.76-3.12.76q-9.35,0-18.7,0C575.19,287.67,574,288,573.15,286.91Z" transform="translate(-191.6 -192.27)"/><path d="M571.67,224.33h26.45c.9,1.35.72,2.89.72,4.39,0,15.62-.05,31.24.06,46.85,0,2.36-.64,4.62-.52,7a3.66,3.66,0,0,1-4.21,3.66,150.46,150.46,0,0,0-17,0c-3.92.23-4.78-1.75-4.78-4.92,0-4.16,0-8.31,0-12.47.05-14.22.09-28.45.24-42.67C572.65,225.2,572,224.93,571.67,224.33Z" transform="translate(-191.6 -192.27)"/><path d="M315.18,315.11v-22.2h.76V315.1Z" transform="translate(-191.6 -192.27)"/><path d="M664.6,569.53q0-29.28,0-58.56,0-29.6,0-59.19c0-6.91,0-6.91,6.95-6.91a224,224,0,0,1,22.43.75H670.74c0,.25,0,.5,0,.76,6.84,0,13.67.14,20.5-.07,2.65-.08,3.62.86,3.58,3.31,0,.75,0,1.51,0,2.26q0,54.6,0,109.19c0,1.36.72,3-1.17,3.95-.34.17-.45,1.57-.13,2.07.52.81.67-1.09,1.17-.45a2.41,2.41,0,0,1,0,1.8c-.44,1.56-1.81,1.08-2.85,1.08-8.57,0-17.13,0-25.69,0h-1.51Z" transform="translate(-191.6 -192.27)"/><path class="cls-24" d="M663.93,569.55l-1.61.07V512.47c0-1.12.24-2.42-.23-3.33-1.55-3,1.32-.86,1.69-1.55.08,11.51.19,23,.22,34.54C664,551.27,664,560.41,663.93,569.55Z" transform="translate(-191.6 -192.27)"/><path class="cls-12" d="M694.82,570.29v2.17c-1.13-1.87-2.84-1.37-4.32-1.38-7.36,0-14.72,0-22.08,0-1.3,0-2.8.54-3.82-.84Z" transform="translate(-191.6 -192.27)"/><path class="cls-8" d="M350.23,225q0,28.82,0,57.64c0,1.44.56,3-.69,4.31q.06-31,.14-62C349.85,224.66,350.05,224.67,350.23,225Z" transform="translate(-191.6 -192.27)"/><path class="cls-21" d="M350.23,225l-.59,0c.33-1,1.19-.71,1.87-.71q14.07,0,28.13.08l-1.47.67Z" transform="translate(-191.6 -192.27)"/><path class="cls-8" d="M538.4,255.94c0-.26-.08-.52-.11-.77q.13-15.12.26-30.23c.22-.27.43-.27.61,0,0,9,0,18,0,27.06C539.11,253.35,539.63,254.83,538.4,255.94Z" transform="translate(-191.6 -192.27)"/><path class="cls-21" d="M539.16,225l-.61,0c.36-.95,1.2-.72,1.9-.72l28.14.08a5.16,5.16,0,0,1,0,.68Z" transform="translate(-191.6 -192.27)"/><path class="cls-25" d="M569.32,413.29c8.84-1.79,17.79-.71,26.68-.84,4.75-.06,5.1.61,5.11,5.22,0,7.42-.11,14.85,0,22.27.07,3-.81,4.3-4,4.23-8-.17-16.1-.08-24.15,0-2,0-3-.21-3.24-2.79-.75-9.16-.05-18.33-.38-27.49-.24-.11-.32-.23-.25-.36S569.24,413.29,569.32,413.29Z" transform="translate(-191.6 -192.27)"/><path class="cls-26" d="M349.46,413.88c0,8.66-.12,17.33.05,26,.06,3.18-1.21,4.27-4.19,4.25-8-.06-16.08-.08-24.12,0-2.62,0-3.54-1-3.51-3.59.09-8.16.07-16.33,0-24.5,0-2,.5-2.77,2.68-3.05a61.74,61.74,0,0,1,18.31,0c3.05.5,6.16-.93,9.25,0,.24-.3.49-.31.74,0l.79.82Z" transform="translate(-191.6 -192.27)"/><path class="cls-3" d="M380.61,396.9c0,4.39-.09,8.79.05,13.19.06,2-.65,2.56-2.59,2.54q-13.19-.12-26.37,0c-2,0-2.58-.64-2.56-2.6q.14-13.18,0-26.38c0-2,.71-2.55,2.63-2.53q13.19.12,26.38,0c2,0,2.58.68,2.54,2.6-.11,4.39,0,8.79,0,13.19Z" transform="translate(-191.6 -192.27)"/><path class="cls-3" d="M569.57,396.86c0,4.39-.08,8.79,0,13.18,0,2-.58,2.61-2.56,2.59q-13.2-.13-26.38,0c-1.91,0-2.63-.52-2.61-2.55q.13-13.18,0-26.38c0-2,.63-2.58,2.6-2.57,8.79.09,17.58.07,26.37,0,1.93,0,2.64.55,2.58,2.55C569.48,388.06,569.57,392.46,569.57,396.86Z" transform="translate(-191.6 -192.27)"/><path class="cls-27" d="M534.58,554.45l-2.22.75c-1.52-3-.47-6.15-.76-9.22-.14-1.44.35-3.24-1.93-3.35s-3.12,1.13-3.36,3.18c-.33,2.94.76,6-.81,8.83-1.33.27-2.6.4-2.58-1.55a64.54,64.54,0,0,1,.13-8.23,5.8,5.8,0,0,1,4.79-5.12c3.54,0,7.08,0,10.63,0a5.92,5.92,0,0,1,4.81,4.74c-.13,3.32.3,6.64-.18,9.95-1.09.55-2.12.78-2.77-.62-.13-2.39,0-4.78-.05-7.17a12.81,12.81,0,0,0-.8-2.48c-.57-1.49-1.85-1.47-3.12-1.42-1.79.08-1.3,1.46-1.38,2.49C534.73,548.29,535.47,551.41,534.58,554.45Z" transform="translate(-191.6 -192.27)"/><path class="cls-28" d="M500.6,533.28h2.27c1.33,1.94.67,4.13.72,6.2.1,4.11,0,8.24.05,12.35,0,2.25-.86,3.22-3.14,3s-4.54.49-6.65-.5a6.29,6.29,0,0,1-3.79-4.75c-1-3-.13-5.53,1.51-8l0,0c1.65-1.1,3.32-2.21,5.44-1.9,2.54.37,3.63-.56,3.31-3.21A4.57,4.57,0,0,1,500.6,533.28Z" transform="translate(-191.6 -192.27)"/><path class="cls-29" d="M566.33,542.27v-2.11c3.45-.56,6.94-1.4,10,1.26,3.09,3.78,1.31,8.22,1.61,12.37.07.92-1,1-1.72,1-2.39,0-4.79.12-7.17,0a4.39,4.39,0,0,1-4.54-4.57c-.15-2.92,2-3.83,4.29-4.37a16.65,16.65,0,0,1,3.39-.07c.88,0,2,.09,2-1.12s-.8-1.75-2-1.91C570.28,542.47,568.24,543.26,566.33,542.27Z" transform="translate(-191.6 -192.27)"/><path class="cls-27" d="M609.42,554.44l-2.21.76c-1.61-2.68-.41-5.63-.83-8.42-.27-1.79-.06-3.84-2.81-4.09-3.41-.3-3.74,0-4,3.5-.24,2.87,1.2,6-1.08,8.59-1.25.09-2.31-.1-2.23-1.7.19-4.34-.48-8.7.38-13l-.05,0c2.69-.84,5.48-.52,8.17-.3,3,.24,4.73,2.4,4.93,5.31C609.88,548.22,610.18,551.36,609.42,554.44Z" transform="translate(-191.6 -192.27)"/><path class="cls-29" d="M580.77,540.08l1.5,0c1.88.3,1.35,1.81,1.43,3,.15,2-.12,4,.2,6,.26,1.65.87,2.74,2.84,2.85a3,3,0,0,0,3.51-2.56c.45-1.74.18-3.51.29-5.25.09-1.35-.35-2.8.76-3.95l2.2,0c.84,3.19.47,6.43.24,9.64a4.52,4.52,0,0,1-2.49,4l0,0a8.75,8.75,0,0,1-5.71,1.08c-2.88-.52-4.86-2.14-5.08-5.11C580.27,546.45,579.91,543.23,580.77,540.08Z" transform="translate(-191.6 -192.27)"/><path class="cls-30" d="M561.83,540.16c-.25.73.73,1.43,0,2.16-3,.07-3.82,1.53-3.57,4.44.23,2.52.53,5.16-.28,7.69l-2.28.75c-1.44-3-.57-6.15-.68-9.23-.07-1.8-.43-3.14-2.26-3.75a4.44,4.44,0,0,0,0-.62,1.18,1.18,0,0,1,0-1.69c2,0,2.17-1.55,2.57-3,.8-2.93,2.79-4.19,5.73-4,2,.13,2.29,1.05,1.48,2.66l.05,0a2.25,2.25,0,0,1-1.72.4,2.12,2.12,0,0,0-2.45,2.09c-.17,2,1.25,1.69,2.44,1.72A1.45,1.45,0,0,1,561.83,540.16Z" transform="translate(-191.6 -192.27)"/><path class="cls-31" d="M602.52,721v86.4h-.37V720.8Z" transform="translate(-191.6 -192.27)"/><path class="cls-15" d="M256.52,569.6c-1.78-.07-1.42-1.43-1.42-2.48q0-29.75.12-59.49c.51.1,1.08.28,1,.87-1.16,18.77-.16,37.55-.53,56.33A22.22,22.22,0,0,0,256.52,569.6Z" transform="translate(-191.6 -192.27)"/><path class="cls-32" d="M490.06,549.08c2.44,4.84,5.57,6.26,11.07,5.38,2.15-.35,1.78-1.76,1.78-3.06,0-6,0-12.08,0-18.12,1.6.19,1.51,1.39,1.51,2.54,0,5.39,0,10.79,0,16.18,0,2.17-.79,3.4-3.08,3.2-3.49-.31-7.3,1.17-10.27-2.08-.92-1-1.76-1.77-1-3.19-.22-.2-.28-.39-.2-.58S490,549.08,490.06,549.08Z" transform="translate(-191.6 -192.27)"/><path class="cls-33" d="M566.33,542.27l6,0c1.77,0,2.44,1.14,2.47,2.67.05,2-1.58,1-2.46,1.13-1.34.23-2.78,0-4.08.33-1.72.47-3.34,1.41-3.34,3.53a4,4,0,0,0,3.17,4.12c2.7.75,5.47.27,8.2.29a1.28,1.28,0,0,0,1.33-1.48c-.13-3.82.85-7.78-1.44-11.33-.24-.15-.32-.31-.25-.47s.15-.24.23-.24c1.87,1.93,3.77,11.75,2,13.28-3,2.51-6.91.9-10.4.92-2.14,0-3.42-1.74-3.67-4-.36-3.23,1.22-5,4.22-5.55a25.14,25.14,0,0,1,3.37-.11c.69-.05,1.72.22,1.82-.8s-.94-1.25-1.81-1.42C569.9,542.78,567.9,543.88,566.33,542.27Z" transform="translate(-191.6 -192.27)"/><path class="cls-17" d="M413.06,807.36V752.69h.37v54.83Z" transform="translate(-191.6 -192.27)"/><path class="cls-34" d="M598.84,554.43c0-3,0-6,.08-9,.05-1.29-.71-3.55,1.65-3.27,2,.24,4.92-1.24,6,2.24s.27,7.19.68,10.76c-1.86-.22-1.54-1.65-1.56-2.86,0-2.25,0-4.5,0-6.74,0-2-1.25-2.46-3-2.49-1.9,0-2.32,1-2.27,2.59.06,2,0,4,0,6,0,1.39.09,2.81-1.54,3.48-.26-.17-.34-.34-.25-.5S598.75,554.43,598.84,554.43Z" transform="translate(-191.6 -192.27)"/><path class="cls-34" d="M525.51,554.43c0-2.77,0-5.53.12-8.29.14-2.38,1.28-4.08,3.94-4.11,1.7,0,2.83.53,2.76,2.63-.11,3.51,0,7,0,10.54-2.87-1.92-.92-4.87-1.56-7.26-.43-1.6,1.32-4.43-1.53-4.59-3.14-.19-1.91,2.8-2.21,4.58-.36,2.16.83,4.51-.8,6.51C526,554.73,525.75,554.74,525.51,554.43Z" transform="translate(-191.6 -192.27)"/><path class="cls-35" d="M591.3,540.1c-.33,3.1.3,6.23-.46,9.35-.51,2.1-1.57,2.86-3.67,2.84s-3.22-.58-3.74-2.76a35.25,35.25,0,0,1-.42-5.59c-.12-1.32.5-2.79-.74-3.9,2.34-1.12,2.1.8,2.18,2,.13,2.12.06,4.26,0,6.38,0,1.73.49,2.94,2.5,3s2.61-1.29,2.72-2.88c.14-2.12,0-4.26.1-6.38C589.87,541.29,589.21,539.58,591.3,540.1Z" transform="translate(-191.6 -192.27)"/><path class="cls-27" d="M547.49,540.08l2.21,0a30.88,30.88,0,0,1,.15,14.4c-1.5.49-2.82.56-2.74-1.57C547.27,548.66,546.62,544.35,547.49,540.08Z" transform="translate(-191.6 -192.27)"/><path class="cls-36" d="M506.62,550.71c-2.73-6.8,1.72-12.49,8.58-11.32a6.12,6.12,0,0,1,5.33,5.08c.33,1.64,1.74,3.65-1,4.64a4.39,4.39,0,0,1-.61-.87,3.06,3.06,0,0,1-.19-.72c-.53-4.61-2.26-6.55-5.61-6.28s-5.23,2.77-5.31,6.9a12.35,12.35,0,0,1,0,1.49A1.46,1.46,0,0,1,506.62,550.71Z" transform="translate(-191.6 -192.27)"/><path class="cls-37" d="M348.68,413.06l-.37,0-.37,0V382.18h.74Z" transform="translate(-191.6 -192.27)"/><path class="cls-31" d="M632.08,810.56l-30.22.1c.11-.66.28-1,1.17-1,9.39.32,18.78.46,28.17,0C631.83,809.56,632,810.05,632.08,810.56Z" transform="translate(-191.6 -192.27)"/><path class="cls-18" d="M350.48,380h28.94v.33H350.33Z" transform="translate(-191.6 -192.27)"/><path class="cls-17" d="M507.63,747.32h29.21v.34H507.6Z" transform="translate(-191.6 -192.27)"/><path class="cls-18" d="M538.54,380h29.25v.34H538.64Z" transform="translate(-191.6 -192.27)"/><path class="cls-21" d="M569.32,413.29a2.18,2.18,0,0,1,0,.57h-30v-.57Z" transform="translate(-191.6 -192.27)"/><path class="cls-18" d="M694.83,664l-.75-.06q0-15.43,0-30.87c1,.47.86,1.42.86,2.27Z" transform="translate(-191.6 -192.27)"/><path class="cls-19" d="M571.1,715.59h29.23V716H571.07Z" transform="translate(-191.6 -192.27)"/><path class="cls-38" d="M537.45,382.42v28.19h-.33V382.26Z" transform="translate(-191.6 -192.27)"/><path class="cls-39" d="M381.36,411.36V383.15h.35v28.36Z" transform="translate(-191.6 -192.27)"/><path class="cls-21" d="M349.47,413.88c.66-.8,1.57-.66,2.44-.66,8.92,0,17.85,0,26.78.66H349.47Z" transform="translate(-191.6 -192.27)"/><path class="cls-38" d="M570.79,383.14v27.45h-.34V383Z" transform="translate(-191.6 -192.27)"/><path class="cls-19" d="M319.49,715.51h27.45v.36H319.33Z" transform="translate(-191.6 -192.27)"/><path class="cls-40" d="M609.42,554.44c0-2.36.05-4.73,0-7.1-.14-5.33-2-7.21-7.24-7.24-1.87,0-3.74,0-5.61,0,3.23-1.49,6.56-1,9.83-.33a4.12,4.12,0,0,1,3.31,3.31C610.35,546.87,610.85,550.7,609.42,554.44Z" transform="translate(-191.6 -192.27)"/><path class="cls-32" d="M580.77,540.08c0,2.24-.07,4.48,0,6.72.09,6.26,3,8.47,9.08,7a9.16,9.16,0,0,1,1.48-.14c-2.42,2.4-5.28,2-8,.88s-3.63-3.67-3.33-6.49C580.25,545.38,579,542.57,580.77,540.08Z" transform="translate(-191.6 -192.27)"/><path class="cls-41" d="M552.81,542.22c2-.09,3,.83,2.92,2.89-.06,3.36,0,6.73,0,10.09-2.21-1.15-1.37-3.23-1.48-5C554.1,547.49,554.92,544.59,552.81,542.22Z" transform="translate(-191.6 -192.27)"/><path class="cls-42" d="M549.68,554.4q0-7.14,0-14.28c.45-2.47,1.85-1.23,3-.79.26.17.35.34.26.51s-.17.25-.26.25c0,.51,0,1,0,1.51h-1.5a37,37,0,0,0,0,12.11,1.47,1.47,0,0,1-.79,1.47C550.22,554.9,549.75,554.85,549.68,554.4Z" transform="translate(-191.6 -192.27)"/><path class="cls-33" d="M525.51,554.43h.75c-2.26,1.38-3.77,1.27-3.75-1.89,0-2.11,0-4.22,0-6.33-.08-3.74,1.44-6.2,5.32-6.86.24.14.32.27.24.41s-.16.21-.24.21c-3.91,2.27-6.29,9.87-4.31,13.78C523.94,554.61,524.8,554.33,525.51,554.43Z" transform="translate(-191.6 -192.27)"/><path class="cls-36" d="M552.75,540.09v-.76c2-.29,1.7-2.19,2.22-3.43,1.2-2.88,4.56-4.5,7.25-3.26,1.6.74,1.38,1.82.32,2.92.23-1.86-.72-2.55-2.41-2.21-2.14.45-4.28,1.19-4.3,3.85C555.81,539.46,555,540.46,552.75,540.09Z" transform="translate(-191.6 -192.27)"/><path class="cls-43" d="M534.58,554.45c0-2.86-.14-5.74.1-8.58.11-1.22-1.27-3.29,1.05-3.63,2.08-.3,4.34-.12,4.75,2.78,0,.37,0,.74.07,1.11-.22.37-.45.37-.67,0a17.39,17.39,0,0,1-.85-1.59,2,2,0,0,0-2.35-1.35c-1.4.18-1.19,1.28-1.31,2.25C535,548.44,536.24,551.57,534.58,554.45Z" transform="translate(-191.6 -192.27)"/><path class="cls-18" d="M694.84,727.49c0,6.22.09,12.44.08,18.66,0,.67.65,1.87-.91,1.86q0-10.25.07-20.47Z" transform="translate(-191.6 -192.27)"/><path class="cls-43" d="M549.68,554.4l.77.78c-3,.49-4.19-.72-3.77-3.72.52-3.77-1-7.69.81-11.38,0,4,0,7.93,0,11.89C547.42,553.6,547.75,554.68,549.68,554.4Z" transform="translate(-191.6 -192.27)"/><path class="cls-32" d="M506.62,550.71c.21-.26.42-.53.64-.79,2.9,3.49,7.14,3.39,11.08,4.11l.39.41C513,556.63,508.79,555.33,506.62,550.71Z" transform="translate(-191.6 -192.27)"/><path class="cls-40" d="M598.84,554.43c0,.25,0,.5,0,.75-1.18-.08-3,.41-2.9-1.44.13-4.56-1-9.19.68-13.67,0,4,0,8-.05,11.94C596.52,553.7,597,554.65,598.84,554.43Z" transform="translate(-191.6 -192.27)"/><path class="cls-44" d="M500.6,533.28a25,25,0,0,0,0,2.6c.34,2.89-.18,4.88-3.82,4.24-1.94-.33-3.43,1.29-5.27,1.51a4.12,4.12,0,0,1,4.3-2.25c3.33.38,4.52-.94,4-4.13A2,2,0,0,1,500.6,533.28Z" transform="translate(-191.6 -192.27)"/><path class="cls-33" d="M591.25,553.68c3.42-4.09,2-9,2.25-13.6,1.56,3.73.91,7.55.35,11.33A2.48,2.48,0,0,1,591.25,553.68Z" transform="translate(-191.6 -192.27)"/><path class="cls-45" d="M558,554.45c0-2.75.2-5.52,0-8.24-.28-3.08.67-4.51,3.89-3.89-3,.63-3.22,2.65-3.16,5.25C558.77,549.84,559.58,552.3,558,554.45Z" transform="translate(-191.6 -192.27)"/><path class="cls-43" d="M542.92,554.45c0-3.53,0-7.06,0-10.59a.44.44,0,0,1,.74,0c.23,2.8-.37,5.63.41,8.41a2.57,2.57,0,0,1-1.17,2.86c-.26-.15-.35-.3-.26-.45S542.83,554.45,542.92,554.45Z" transform="translate(-191.6 -192.27)"/><path class="cls-41" d="M551.24,553.71c-1.56-4-.52-8-.6-12.06,0-.06.18-.16.27-.16a.89.89,0,0,1,.35.11Q551.26,547.66,551.24,553.71Z" transform="translate(-191.6 -192.27)"/><path class="cls-46" d="M519.5,548.41c0,.23,0,.47,0,.7-2.33,0-4.66.09-7,0-1.95,0-2,.85-1.28,2.27a1.47,1.47,0,0,1-1.38.12c-1.5-2-.87-3.51,1.3-3.92C513.91,547.09,516.86,546.58,519.5,548.41Z" transform="translate(-191.6 -192.27)"/><path class="cls-32" d="M576.17,540.85c0,.24,0,.47,0,.71-3.05-2.12-6.51-1.36-9.85-1.4C569.71,539.1,573.07,538.1,576.17,540.85Z" transform="translate(-191.6 -192.27)"/><path class="cls-43" d="M561.83,540.16c-1.33-.54-3.81,1.08-3.78-2,0-3.42,2.6-2.49,4.54-2.64-.08.09-.15.19-.24.28-1,1-3.24.06-3.39,2.18S561.39,538.73,561.83,540.16Z" transform="translate(-191.6 -192.27)"/><path class="cls-32" d="M550.48,536.24c-1.31,1.14-2.7,1.47-3.6-.3-.46-.92-.61-2.45.48-3.05s2.72-.93,3.12,1.16C548.39,534.78,549.46,535.51,550.48,536.24Z" transform="translate(-191.6 -192.27)"/><path class="cls-45" d="M527.82,540c0-.21,0-.41,0-.62h11.31a.53.53,0,0,1,.2.55c-.06.19-.13.28-.19.28Z" transform="translate(-191.6 -192.27)"/><path class="cls-28" d="M550.48,536.24c-1-.09-2.29.54-2.82-.83a1.92,1.92,0,0,1,.2-1.68c.89-.87,1.76,0,2.62.32Z" transform="translate(-191.6 -192.27)"/><path class="cls-33" d="M490.06,549.08c0,.28,0,.57,0,.85-1.34-3.12-1.42-6,1.55-8.33C491,544.08,489.63,546.4,490.06,549.08Z" transform="translate(-191.6 -192.27)"/><path class="cls-47" d="M539.14,540.18c0-.27,0-.55,0-.83,2.71.3,3.9,2.13,4.55,4.51h-.74A13.73,13.73,0,0,0,539.14,540.18Z" transform="translate(-191.6 -192.27)"/><path class="cls-46" d="M539.88,546.14h.67c0,2.52,0,5,0,7.56-.2.38-.4.36-.58,0C539.91,551.17,539.89,548.65,539.88,546.14Z" transform="translate(-191.6 -192.27)"/><path class="cls-32" d="M510.5,551.4l.71,0,6,0a.82.82,0,0,1-.33,1.15C514.6,553.09,512.13,554.49,510.5,551.4Z" transform="translate(-191.6 -192.27)"/><path class="cls-32" d="M517.23,552.21v-.76c1.83.32,3.11.93,1.5,3h0C518.1,553.77,517.3,553.24,517.23,552.21Z" transform="translate(-191.6 -192.27)"/><path class="cls-46" d="M539.93,553.68h.58c.6.9,1.54.71,2.41.76v.68C541.71,555.09,540.16,555.73,539.93,553.68Z" transform="translate(-191.6 -192.27)"/><path class="cls-13" d="M224.05,633.19a.81.81,0,0,1,.71-.09v3.11C223.54,635.19,224.26,634.1,224.05,633.19Z" transform="translate(-191.6 -192.27)"/><path class="cls-46" d="M494.48,543c2-1.12,4.83-1.62,5.68.06a10,10,0,0,1,0,8.33c-.8,1.63-3.72,1.19-5.67.05l.34-.41c2.1-.67,4.3-.89,4.11-4.2-.17-3.06-2.59-2.52-4.15-3.41Z" transform="translate(-191.6 -192.27)"/><path class="cls-46" d="M494.5,551.47c-2.42-2.85-2.42-5.94,0-8.44l.07.07a16,16,0,0,1,0,8.33Z" transform="translate(-191.6 -192.27)"/><path class="cls-33" d="M571.51,552.27c-1.67-.18-4.07.58-3.87-2.14s2.57-1.72,4.15-1.75,3.55-.77,3.51,1.9C575.27,553.25,572.88,551.89,571.51,552.27Z" transform="translate(-191.6 -192.27)"/><path class="cls-28" d="M517.23,552.21a2.08,2.08,0,0,1,1.5,2.22c-2.6-.16-5.22.36-7.78-.64a5.58,5.58,0,0,1-3.69-3.87,6.91,6.91,0,0,1,2-8.15,6.37,6.37,0,0,1,7.35-.79c3.28,1.54,3.08,4.5,2.92,7.43-2.47,0-4.94,0-7.41,0s-3.33.81-1.59,3C512.59,553,515,552,517.23,552.21Z" transform="translate(-191.6 -192.27)"/><path class="cls-48" d="M494.55,551.43a11.88,11.88,0,0,1,0-8.33c5.35,0,5.05,0,5.37,4.72C500.26,552.66,497,551.18,494.55,551.43Z" transform="translate(-191.6 -192.27)"/><path class="cls-49" d="M571.23,551.43c-.94-.12-2.39.26-2.35-1.11,0-1.62,1.64-1.11,2.64-1.13s2.31-.3,2.13,1.24C573.48,551.81,572.11,551.26,571.23,551.43Z" transform="translate(-191.6 -192.27)"/><path class="cls-45" d="M513.43,546.31c-1.17-.69-3.48,1-3.55-1.4-.07-2.11,1.85-2.64,3.78-2.61s3.5.73,3.36,2.64C516.85,547.31,514.61,545.63,513.43,546.31Z" transform="translate(-191.6 -192.27)"/><path class="cls-50" d="M510.55,545.15c1.91-2.47,3.5-2.62,5.58-.42C514.35,545.85,512.69,545.32,510.55,545.15Z" transform="translate(-191.6 -192.27)"/><path class="cls-3" d="M506.08,428.9c0,4.4-.08,8.8,0,13.19.05,2-.58,2.61-2.56,2.59q-13.19-.14-26.38,0c-1.91,0-2.63-.52-2.61-2.55.1-8.79.08-17.58,0-26.38,0-2,.63-2.59,2.6-2.57,8.79.09,17.58.07,26.38,0,1.93,0,2.63.55,2.58,2.55C506,420.11,506.09,424.51,506.08,428.9Z" transform="translate(-191.6 -192.27)"/><path class="cls-3" d="M569.08,395.9c0,4.4-.08,8.8,0,13.19,0,2-.58,2.61-2.56,2.59q-13.18-.14-26.38,0c-1.91,0-2.63-.52-2.61-2.55.1-8.79.08-17.58,0-26.38,0-2,.63-2.59,2.6-2.57,8.79.09,17.58.07,26.38,0,1.93,0,2.63.55,2.58,2.55C569,387.11,569.09,391.51,569.08,395.9Z" transform="translate(-191.6 -192.27)"/><path class="cls-3" d="M475.13,398.89c0,4.4-.08,8.8,0,13.19.05,2-.58,2.6-2.56,2.58q-13.19-.12-26.38,0c-1.91,0-2.63-.52-2.61-2.54.1-8.79.08-17.59,0-26.38,0-2,.63-2.59,2.6-2.57q13.18.12,26.38,0c1.93,0,2.63.55,2.57,2.55C475,390.09,475.13,394.49,475.13,398.89Z" transform="translate(-191.6 -192.27)"/><path class="cls-3" d="M443.78,428.9c0,4.4-.08,8.8,0,13.19.05,2-.58,2.61-2.56,2.59q-13.2-.14-26.38,0c-1.91,0-2.63-.52-2.61-2.55q.14-13.19,0-26.38c0-2,.63-2.59,2.6-2.57,8.79.09,17.58.07,26.37,0,1.93,0,2.64.55,2.58,2.55C443.69,420.11,443.78,424.51,443.78,428.9Z" transform="translate(-191.6 -192.27)"/></svg>