<svg id="Camada_1" data-name="Camada 1" xmlns="http://www.w3.org/2000/svg" viewBox="0 0 705.14 639.07"><defs><style>.cls-1{fill:#fdfdfd;}.cls-2{fill:#a09da1;}.cls-3{fill:#cdc9cf;}.cls-4{fill:#ffa6ed;}</style></defs><title>pixelcat</title><ellipse class="cls-1" cx="352.57" cy="319.54" rx="498.61" ry="451.89"/><path d="M285.42,576.72c-6.83,0-13.66,0-20.48.06-1.1,0-1.68-.23-1.49-1.45a9.68,9.68,0,0,0,0-1.32V381.33c0-2.76,0-2.76,2.8-2.76h19.16l.29.33a6.89,6.89,0,0,1,.41,3.24c-.19,63.88-.05,127.76-.1,191.64a5.74,5.74,0,0,1-.31,2.6Z" transform="translate(-86.77 -158.33)"/><path d="M571.65,642.78a6.44,6.44,0,0,1,.1.87c0,6.53,0,13.06,0,19.59,0,1.77,0,1.61-1.49,1.61H529.33c-1.82,0-1.62-.09-1.62-1.74q0-9.24,0-18.49c0-1.93.13-1.8-1.76-1.8H463.45c-1.78,0-1.8,0-1.8,1.78q0,9.24,0,18.49c0,1.89.16,1.75-1.79,1.75h-40.5c-1.73,0-1.74,0-1.75-1.81l-.06-20.25.32-.28a6.61,6.61,0,0,1,3-.39c3.73,0,7.46.06,11.19,0,2.09,0,4.7.91,6.16-.52s.53-4.18.58-6.34c.11-3.8,0-7.61,0-11.41a4.78,4.78,0,0,1,.63-3.17,3.69,3.69,0,0,1,2.31-.55c6.59,0,13.19-.09,19.78,0,11.59-.15,23.18-.06,34.76-.06,10.42,0,20.83-.1,31.24.06,6.59-.13,13.17,0,19.76,0a3.93,3.93,0,0,1,2.32.51c.86,1,.69,2.2.69,3.35,0,5.13,0,10.26,0,15.39,0,2.54.22,2.74,2.78,2.76,5.05,0,10.11,0,15.16,0a6.67,6.67,0,0,1,3,.39Z" transform="translate(-86.77 -158.33)"/><path d="M659.74,422.61h42c2.12,0,2.13,0,2.13-2.07V380.28c0-.59,0-1.17,0-1.76l.32-.28a3.93,3.93,0,0,1,1.93-.38c5.86,0,11.72,0,17.59,0a3.48,3.48,0,0,1,2.29.61,4.71,4.71,0,0,1,.58,3c0,20.28-.14,40.55-.1,60.83a5.57,5.57,0,0,1-.21,1.95,1.46,1.46,0,0,1-.53.67,6.78,6.78,0,0,1-3.24.43c-5.06,0-10.12,0-15.19,0-2.53,0-2.74.22-2.75,2.78,0,12.18,0,24.36,0,36.54a10,10,0,0,1-.32,3.7,1.41,1.41,0,0,1-.58.63,5.86,5.86,0,0,1-2.59.38c-5.42,0-10.85,0-16.27,0-3.16,0-3.65-.52-3.66-3.78,0-11.8,0-23.61,0-35.41,0-.73,0-1.46,0-2.2-.07-2.4-.25-2.61-2.69-2.63-5.2,0-10.41,0-15.61,0-3.2,0-3.68-.51-3.7-3.73,0-5.35,0-10.7,0-16.05a5.6,5.6,0,0,1,.39-2.59Z" transform="translate(-86.77 -158.33)"/><path d="M747.83,334.53h20.25c2,0,1.87-.23,1.87,1.89V442.74c0,2.1.21,1.89-1.87,1.89l-20.25,0-.28-.32a4.42,4.42,0,0,1-.38-2.15c0-6.52-.08-13,0-19.56q-.13-11,0-22-.13-11,0-22c-.13-13.85,0-27.71,0-41.56a4.38,4.38,0,0,1,.38-2.14Z" transform="translate(-86.77 -158.33)"/><path d="M549.63,378.57h85.78c2.41,0,2.42,0,2.41,2.46q0,9.78-.1,19.56l-.32.28a4.39,4.39,0,0,1-2.14.39c-6.38,0-12.75.06-19.13,0-7.46.07-14.93.11-22.4,0-7.18.11-14.36.08-21.53,0-6.3,0-12.6,0-18.9,0A9.24,9.24,0,0,1,550,401a1.58,1.58,0,0,1-.65-.55,117.3,117.3,0,0,1,0-21.53Z" transform="translate(-86.77 -158.33)"/><path d="M373.46,312.5h88.13l.29.32c.07.28.06-.09.08.2a144.11,144.11,0,0,1,0,21.19,1.34,1.34,0,0,1-.59.61,4.7,4.7,0,0,1-2.13.36c-6.56,0-13.12.08-19.68,0-7.18.1-14.37.08-21.55,0-13.83.08-27.66,0-41.48,0a7.21,7.21,0,0,1-2.61-.29,1.57,1.57,0,0,1-.67-.53,4.24,4.24,0,0,1-.42-2.13q0-8.76,0-17.52a4,4,0,0,1,.37-1.92Z" transform="translate(-86.77 -158.33)"/><path d="M725.81,488.62c0,.73.09,1.46.09,2.19q0,41.82,0,83.63v.66c0,1.79.1,1.67-1.66,1.66l-20.46,0-.28-.32a4.23,4.23,0,0,1-.38-2.13c0-6.54-.08-13.09,0-19.63-.16-7,0-14.07-.06-21.11q0-20.55,0-41.11c0-1.3-.22-2.67.74-3.79l-.05.05A3.21,3.21,0,0,1,706,488c5.92,0,11.83,0,17.75,0a3.57,3.57,0,0,1,1.7.36Z" transform="translate(-86.77 -158.33)"/><path d="M373.46,642.78q0,10.54.11,21.09c0,.78-.3,1-1,1-.36,0-.73,0-1.1,0H331.87c-.44,0-.88,0-1.32,0-.72,0-1.1-.22-1-1,0-.51,0-1,0-1.54V623.18c0-.81,0-1.61-.06-2.42l.33-.28a2.67,2.67,0,0,1,1.26-.34c6.27-.1,12.55-.09,18.82,0a2.79,2.79,0,0,1,1.65.5c.76.94.63,2.07.64,3.16,0,5.12,0,10.24,0,15.36,0,2.79.17,2.94,3,3,5,0,9.95,0,14.92,0a6.61,6.61,0,0,1,3,.39Z" transform="translate(-86.77 -158.33)"/><path d="M659.75,620.76c0,.73.09,1.46.09,2.19v40c0,2.1.21,1.89-1.86,1.89H617.75a8.61,8.61,0,0,0-.88,0c-.91.09-1.09-.39-1.08-1.19,0-2,0-4.1,0-6.15q0-7.37,0-14.73l.32-.28a7.1,7.1,0,0,1,3.23-.39c5,0,10.08,0,15.12,0,2.39,0,2.6-.23,2.62-2.67,0-5.18,0-10.37,0-15.56a5,5,0,0,1,.58-3.17,3.11,3.11,0,0,1,2.08-.58q9-.08,18,0a3.57,3.57,0,0,1,1.7.36Z" transform="translate(-86.77 -158.33)"/><path d="M307.45,334.53q0-17.7.05-35.39c0-2.2,0-4.4,0-6.6s-.26-2.06,2-2.06h20l.29.33a6.84,6.84,0,0,1,.4,3.23q0,18.54,0,37.07a5.82,5.82,0,0,1-.54,3.41,3.11,3.11,0,0,1-2.25.65c-5.89.05-11.78,0-17.67,0a4.05,4.05,0,0,1-1.91-.37Z" transform="translate(-86.77 -158.33)"/><path d="M505.59,290.48c6.88,0,13.77,0,20.65,0,1.12,0,1.5.26,1.5,1.44q-.06,21.09,0,42.19a2,2,0,0,1-.08.43l-.33.29a4.1,4.1,0,0,1-1.92.38q-8.79,0-17.58,0a3.48,3.48,0,0,1-2.29-.6,5,5,0,0,1-.59-3.18q0-18.9,0-37.79a6,6,0,0,1,.39-2.81Z" transform="translate(-86.77 -158.33)"/><path d="M703.84,334.53q0-9.79,0-19.58c0-.52,0-1,0-1.54s.28-.93.92-.91c.43,0,.88,0,1.32,0h39.6a10.09,10.09,0,0,0,1.1,0c.9-.12,1.13.31,1.11,1.13,0,2.13,0,4.26,0,6.38q0,7.26-.1,14.52l0,0a4,4,0,0,1-2.91.73q-19.11,0-38.22,0a5.45,5.45,0,0,1-2.58-.39Z" transform="translate(-86.77 -158.33)"/><path d="M285.42,378.58l.06-24.19c0-5.86,0-11.73,0-17.59,0-2.48-.32-2.27,2.18-2.27h19.79l-.05,0a3.44,3.44,0,0,1,.72,2.47c.08,13.31-.12,26.62-.09,39.93a3.79,3.79,0,0,1-.21,1.29,1.45,1.45,0,0,1-.56.66,2.64,2.64,0,0,1-1.25.35c-6.28.14-12.55.1-18.82,0a2.75,2.75,0,0,1-1.81-.68Z" transform="translate(-86.77 -158.33)"/><path d="M527.62,334.52c6.88,0,13.77,0,20.65,0,1.13,0,1.49.28,1.49,1.45q-.06,21,0,42a3.8,3.8,0,0,1-.1.65l0-.05a3.69,3.69,0,0,1-2.68.73c-5.63,0-11.27,0-16.9,0a4.07,4.07,0,0,1-2.52-.56,3.64,3.64,0,0,1-.64-2.49c0-6.55-.09-13.1,0-19.65-.13-6.53,0-13.06,0-19.59a3.47,3.47,0,0,1,.72-2.48Z" transform="translate(-86.77 -158.33)"/><path d="M703.84,378.52q-10.11,0-20.21,0c-1.74,0-1.76,0-1.76-1.8V342.49c0-2.13,0-4.25,0-6.37,0-1.56,0-1.59,1.54-1.59,4.69,0,9.37,0,14.06,0h6.37l-.06,0a4,4,0,0,1,.75,2.9q0,19.14,0,38.28a3.94,3.94,0,0,1-.75,2.91Z" transform="translate(-86.77 -158.33)"/><path d="M747.83,444.59c0,.73.1,1.46.1,2.19v39.59a5.17,5.17,0,0,0,0,.88c.18,1.17-.33,1.46-1.46,1.45-6.89-.07-13.78-.06-20.67-.08l.05.06a4,4,0,0,1-.74-2.91q0-19.12,0-38.27a4,4,0,0,1,.73-2.91l0,0a3.73,3.73,0,0,1,.73-.46c3-.54,6-.19,9-.25,3.15-.06,6.3,0,9.45,0a4.08,4.08,0,0,1,2.91.72Z" transform="translate(-86.77 -158.33)"/><path d="M417.55,642.78H373.46l.05.05a3.71,3.71,0,0,1-.73-2.69q0-8.46,0-16.92a4,4,0,0,1,.59-2.52,4.82,4.82,0,0,1,3.17-.63q18.93,0,37.86,0a5.21,5.21,0,0,1,3.19.57,4.25,4.25,0,0,1,.65,2.92q0,8.19,0,16.38a4,4,0,0,1-.75,2.89Z" transform="translate(-86.77 -158.33)"/><path d="M615.75,642.78h-44.1l.06.05a3.71,3.71,0,0,1-.73-2.69c0-5.64,0-11.28,0-16.92a4,4,0,0,1,.59-2.52,4.82,4.82,0,0,1,3.17-.63q18.93,0,37.85,0a5.24,5.24,0,0,1,3.2.57,4.69,4.69,0,0,1,.65,3.14q0,8,0,16a4.24,4.24,0,0,1-.74,3.1Z" transform="translate(-86.77 -158.33)"/><path d="M637.72,400.59q10.21,0,20.42,0c1.82,0,1.71-.07,1.7,1.62q0,10.2-.1,20.4l0-.05a3.69,3.69,0,0,1-2.68.74c-5.57,0-11.13.05-16.7,0-2.81,0-3.34-.55-3.37-3.37,0-5.56,0-11.13,0-16.69a3.75,3.75,0,0,1,.73-2.69Z" transform="translate(-86.77 -158.33)"/><path d="M329.46,290.49l.06-19.57c0-.52,0-1,0-1.54s.26-.94.9-.92c.81,0,1.62,0,2.42,0,5.8,0,11.59,0,17.38,0,.84,0,1.35.08,1.34,1.14-.07,7-.09,13.93-.12,20.89l-.33.29a5,5,0,0,1-2.35.39H332.1a3.77,3.77,0,0,1-2.69-.73Z" transform="translate(-86.77 -158.33)"/><path d="M483.62,290.48q0-9.78.05-19.57c0-.51,0-1,0-1.54s.27-.92.91-.91c.95,0,1.91,0,2.86,0,5.65,0,11.29,0,16.94,0,.84,0,1.34.08,1.33,1.15-.07,7-.09,13.92-.12,20.88l.05-.05a3.14,3.14,0,0,1-2.24.71c-5.92,0-11.84.05-17.75,0a3.58,3.58,0,0,1-1.7-.37Z" transform="translate(-86.77 -158.33)"/><path d="M351.44,290.48h20.41c1.82,0,1.72-.08,1.71,1.62q0,10.2-.1,20.4l.05,0a3.71,3.71,0,0,1-2.69.73q-8.46,0-16.91,0a4,4,0,0,1-2.52-.57,3.41,3.41,0,0,1-.62-2.27c0-5.82,0-11.64,0-17.46a3.5,3.5,0,0,1,.73-2.45Z" transform="translate(-86.77 -158.33)"/><path d="M461.59,312.51l.06-19.55c0-.51,0-1,0-1.54s.22-1,.88-.94c.44,0,.88,0,1.32,0h19.77l-.05-.05a3.76,3.76,0,0,1,.74,2.69c0,5.64,0,11.28,0,16.91a4,4,0,0,1-.57,2.53,3.41,3.41,0,0,1-2.27.62c-5.82,0-11.64,0-17.46,0a3.45,3.45,0,0,1-2.45-.73Z" transform="translate(-86.77 -158.33)"/><path d="M307.44,598.74q-10.23,0-20.45,0c-1.48,0-1.5,0-1.51-1.61q0-10.23-.06-20.45l0,0a4.1,4.1,0,0,1,.71-.46c4.3-.55,8.61-.2,12.92-.22,2.69,0,5.41-.35,8.08.28a1.37,1.37,0,0,1,.63.56,2.66,2.66,0,0,1,.33,1.26c.12,6.33.1,12.66,0,19a2.7,2.7,0,0,1-.34,1.26Z" transform="translate(-86.77 -158.33)"/><path d="M329.46,620.76q-10.21,0-20.45,0c-1.48,0-1.5,0-1.51-1.61q0-10.23-.06-20.45l0,0a3,3,0,0,1,2-.69c6.13,0,12.27-.07,18.41,0a3.34,3.34,0,0,1,1.28.27,1.49,1.49,0,0,1,.64.58,6.13,6.13,0,0,1,.39,2.78q0,8,0,16c0,1.09.08,2.21-.73,3.11Z" transform="translate(-86.77 -158.33)"/><path d="M703.79,576.72q0,9.45.09,18.89c0,3.17,0,3.18-3.22,3.17l-18.89,0c-.1-.1-.19-.21-.28-.32a2.55,2.55,0,0,1-.33-1.26c-.08-6.36-.12-12.72,0-19.08a3,3,0,0,1,.26-1.06,1.44,1.44,0,0,1,.6-.62,6.57,6.57,0,0,1,2.78-.36h15.92a4.27,4.27,0,0,1,3.1.72Z" transform="translate(-86.77 -158.33)"/><path d="M681.77,598.74c0,7,0,14.06.11,21.09,0,1.26-.8,1-1.48,1h-18c-.87,0-1.75,0-2.63,0l0,0a2.92,2.92,0,0,1-.69-2c0-6.14-.08-12.27,0-18.41a3.16,3.16,0,0,1,.27-1.28,1.47,1.47,0,0,1,.57-.64,6.19,6.19,0,0,1,2.79-.39h16a4.24,4.24,0,0,1,3.11.73Z" transform="translate(-86.77 -158.33)"/><path class="cls-2" d="M285.84,576.67l-.46.09c0-.73.09-1.46.09-2.19q0-30.92,0-61.83l-.06-108.92c0-7.62,0-15.25.06-22.88,0-.8-.06-1.61-.09-2.41l22,0c.82.82.71,1.89.71,2.9,0,5.35,0,10.71,0,16.06,0,3.23-.51,3.73-3.69,3.76-4.69.05-9.39,0-14.08,0-3.79,0-3.79,0-3.79,3.74q0,51.39,0,102.77c0,1,0,1.91-.06,2.86.15,7.92.05,15.83.06,23.75q0,19.35,0,38.7C286.55,574.33,286.79,575.63,285.84,576.67Z" transform="translate(-86.77 -158.33)"/><path class="cls-3" d="M285.87,510.61q0-18.51,0-37V403.8c0-3.58-.42-3.21,3.12-3.22,5.43,0,10.87,0,16.3,0,2.15,0,2.16,0,2.16-2.2,0-6.61,0-13.22,0-19.82h0c.49-2.17.18-4.36.21-6.54.06-4.39,0-8.78,0-13.18,0-2.72.2-3,3-3,4.91-.05,9.81,0,14.72,0,3.36,0,3.37,0,3.37-3.46,0-4.9,0-9.81,0-14.71,0-1.09-.1-2.22.7-3.14,0-.95.07-1.9.07-2.84q0-19.41,0-38.82c0-.8-.06-1.61-.1-2.41h22.08l.05,21.94a5.47,5.47,0,0,1,.63,3.39c0,5.12,0,10.24,0,15.36,0,2.45.2,2.65,2.61,2.66,5.19,0,10.39,0,15.58,0a4.73,4.73,0,0,1,3.16.66h0a4.7,4.7,0,0,1,.66,3.16c0,5.06,0,10.12,0,15.17,0,2.9.13,3,2.92,3h36.71c2.86,0,3-.12,3-3,0-5.06,0-10.11,0-15.17,0-1.14-.17-2.41,1.13-3.1h21.56c.87.9.71,2.05.71,3.13,0,5.13,0,10.27,0,15.41,0,2.46.22,2.67,2.62,2.68q7.59,0,15.19,0c2.59,0,2.77-.19,2.78-2.74,0-5.14,0-10.27,0-15.41,0-1.09-.12-2.23.7-3.14l0,0c.91-.82,2-.7,3.14-.7,5.13,0,10.27,0,15.4,0,2.56,0,2.73-.18,2.74-2.77,0-5.13,0-10.26,0-15.4,0-1.09-.11-2.22.69-3.14.11-7.35.16-14.7,0-22.05h22.07q0,13.51.05,27c0,5.64,0,11.28,0,16.92a5.08,5.08,0,0,1,.63,3.17c0,5,0,9.93,0,14.9,0,3.3.05,3.35,3.26,3.35,5,0,9.93,0,14.9,0,1.09,0,2.22-.12,3.12.7q.06,7.56.1,15.11c0,2.27,0,4.53,0,6.79a5.57,5.57,0,0,1,.64,3.39c0,5.13,0,10.25,0,15.37,0,2.45.21,2.64,2.61,2.66,5.2,0,10.39,0,15.59,0a4.71,4.71,0,0,1,3.15.65h0c.83,1.09.65,2.37.66,3.6q0,18.17,0,36.32c0,3.39.07,3.45,3.43,3.46q6.93,0,13.87,0c3.18,0,3.29-.11,3.29-3.39,0-12,0-24.07,0-36.1,0-1.33-.4-2.86,1.13-3.77l21.56,0c1,1,.71,2.34.71,3.56q0,17.8,0,35.63c0,.73,0,1.47,0,2.2,0,1.13.49,1.8,1.7,1.81q8.58.11,17.16,0a1.51,1.51,0,0,0,1.66-1.62c0-.81,0-1.61,0-2.42,0-11.88,0-23.75,0-35.63,0-1.27-.33-2.71,1.13-3.55l19.2-.05,2.4,0q0,9.68.05,19.35c0,.51,0,1,0,1.53-.06.81.2,1.28,1.09,1.19h.44l20.44-.05q0,9.45.05,18.9a17.22,17.22,0,0,1,0,1.76c-.1,1,.18,1.56,1.31,1.42a11.43,11.43,0,0,1,1.31,0c5.72,0,11.43,0,17.15,0,2.46,0,2.25-.34,2.25,2.19q0,19.67,0,39.34c0,2.76-.4,2.5,2.4,2.5q9.78,0,19.57,0c0,.8,0,1.61,0,2.41q0,30.63,0,61.27c0,.8,0,1.6-.08,2.4-.92.83-2,.7-3.14.71-5.14,0-10.28,0-15.42,0-2.55,0-2.72.18-2.73,2.78,0,5.14,0,10.28,0,15.41a4.91,4.91,0,0,1-.63,3.18h0a4.92,4.92,0,0,1-3.16.63c-5.19,0-10.38,0-15.57,0-2.42,0-2.63.22-2.64,2.64,0,5.19,0,10.38,0,15.57a4.92,4.92,0,0,1-.63,3.16h0a4.94,4.94,0,0,1-3.17.64c-5.19,0-10.39,0-15.59,0-2.4,0-2.6.22-2.61,2.67,0,5.12,0,10.24,0,15.37a5.55,5.55,0,0,1-.62,3.39q0,10.13,0,20.24c0,1.74.06,1.68-1.68,1.68H615.7c0-4.65.08-9.3.09-14,0-2.69,0-5.38-.08-8.07a4.5,4.5,0,0,1-.68-3.15c0-5.13,0-10.27,0-15.4,0-2.58-.2-2.77-2.75-2.78q-18.6,0-37.19,0c-2.46,0-2.65.21-2.67,2.63,0,5.13,0,10.27,0,15.4a5.65,5.65,0,0,1-.62,3.4l-.06,21.92c-6.74,0-13.47,0-20.21,0-1.74,0-1.76,0-1.76-1.81,0-5.93,0-11.86,0-17.79,0-.8-.06-1.6-.09-2.41a4.52,4.52,0,0,1-.67-3.14c0-5.06,0-10.11,0-15.16,0-2.9-.13-3-2.91-3-5,0-10.1,0-15.15,0-2.29,0-2.51.23-2.53,2.54,0,5.2,0,10.39,0,15.59,0,1.08.14,2.22-.7,3.13-.51,0-1,.06-1.54.06H463.35c-.59,0-1.17,0-1.76-.08-.85-.9-.7-2-.71-3.12,0-5.13,0-10.26,0-15.39,0-2.54-.21-2.72-2.79-2.73q-7.57,0-15.16,0c-2.42,0-2.62.21-2.64,2.65,0,5.2,0,10.4,0,15.6a5.25,5.25,0,0,1-.61,3.18q0,10.13,0,20.24c0,1.74.07,1.68-1.67,1.68H417.5c0-4.65.09-9.3.1-14,0-2.69-.06-5.38-.09-8.07a4.55,4.55,0,0,1-.68-3.15c0-5.13,0-10.27,0-15.4,0-2.58-.2-2.77-2.75-2.78q-18.6,0-37.19,0c-2.45,0-2.65.21-2.66,2.63,0,5.13,0,10.27,0,15.4a5.58,5.58,0,0,1-.62,3.4l-.06,21.92c-6.73,0-13.47,0-20.2,0-1.75,0-1.76,0-1.77-1.81,0-5.93,0-11.86,0-17.79,0-.8-.06-1.6-.09-2.41a4.5,4.5,0,0,1-.68-3.15c0-5.14,0-10.28,0-15.41,0-2.59-.18-2.76-2.75-2.77-5.13,0-10.27,0-15.41,0-1.09,0-2.22.11-3.14-.69h0c-.8-.93-.69-2.06-.69-3.15,0-5.14,0-10.27,0-15.41,0-2.57-.18-2.74-2.76-2.75-5.13,0-10.27,0-15.4,0-1.09,0-2.22.11-3.15-.69h0c-.94-1.13-.7-2.5-.7-3.8q0-28.71,0-57.42c0-4.12,0-4.12-4.09-4.13-4.55,0-9.1,0-13.64,0C287.89,511.38,286.75,511.5,285.87,510.61Z" transform="translate(-86.77 -158.33)"/><path class="cls-2" d="M439.64,620.91c0-6.81-.06-13.62-.06-20.44,0-1.61.06-1.68,1.56-1.69q9.45,0,18.9,0c1.51,0,1.54.07,1.54,1.93,0,6.67,0,13.34,0,20l-19.1.09C441.54,620.82,440.59,620.88,439.64,620.91Z" transform="translate(-86.77 -158.33)"/><path class="cls-2" d="M527.63,620.74l0-19.32c0-.59,0-1.17,0-1.76a.81.81,0,0,1,.81-.86c.36,0,.73,0,1.09,0,6.08,0,12.15,0,18.23,0,1.81,0,1.85,0,1.85,1.84,0,6.73,0,13.46,0,20.19Z" transform="translate(-86.77 -158.33)"/><path class="cls-3" d="M703.78,378.57c0-.51.1-1,.1-1.53q0-20.52,0-41c0-.51-.06-1-.1-1.52l31.16,0c4.31,0,8.63,0,12.94,0q0,18.4,0,36.83c0,2.41-.06,4.82-.09,7.23a3.6,3.6,0,0,1-2.68.71c-5.56,0-11.11,0-16.66,0a4,4,0,0,1-2.71-.67Z" transform="translate(-86.77 -158.33)"/><path class="cls-3" d="M725.85,444.59c0,6.73.06,13.45.06,20.18,0,8,0,15.94,0,23.91H703.79c0-.81.09-1.61.09-2.41q0-18.79,0-37.59v-1.1c0-2.95,0-2.94,2.84-2.95Z" transform="translate(-86.77 -158.33)"/><path class="cls-2" d="M725.79,378.58l22.05,0c.14,7.35.16,14.69,0,22-.91.81-2.05.68-3.13.68-4.39,0-8.77,0-13.16,0-4.93,0-4.53-.38-4.56,4.45,0,5.62.07,11.25-.05,16.88.13,6.49.05,13,0,19.47a3.11,3.11,0,0,1-.69,2.45l-.47.1c0-5.12.09-10.24.09-15.36q0-23.26,0-46.53C725.9,381.36,725.83,380,725.79,378.58Z" transform="translate(-86.77 -158.33)"/><path class="cls-2" d="M726.28,444.53l0-22a3.22,3.22,0,0,1,2.26-.63q8.4,0,16.81,0a3.35,3.35,0,0,1,2.46.69c.17,7.35.09,14.7,0,22.05H728.67C727.87,444.63,727.07,444.56,726.28,444.53Z" transform="translate(-86.77 -158.33)"/><path class="cls-3" d="M747.84,422.58l-21.53-.06c0-6.67,0-13.34,0-20,0-1.91,0-1.94,2-1.94h19.56c0,5.08.08,10.17.09,15.25C747.93,418.08,747.87,420.33,747.84,422.58Z" transform="translate(-86.77 -158.33)"/><path class="cls-2" d="M572.13,400.64a4.39,4.39,0,0,0-.43,2.78v38.5c0,2.93.15,2.69-2.78,2.7H551.76c-2,0-2.08,0-2.08-2.07q0-21,0-42l20.22.07C570.66,400.59,571.39,400.62,572.13,400.64Z" transform="translate(-86.77 -158.33)"/><path class="cls-2" d="M616.17,400.64a4.47,4.47,0,0,0-.42,2.78q0,19.26,0,38.53c0,2.82.17,2.67-2.59,2.67H596.2c-2.47,0-2.48,0-2.48-2.57V403.52c0-.95,0-1.91,0-2.86Z" transform="translate(-86.77 -158.33)"/><path class="cls-2" d="M549.71,400.52c-6.74,0-13.49.05-20.24,0-1.75,0-1.8,0-1.8-1.67,0-6.82,0-13.64,0-20.46a55.25,55.25,0,0,0,6.81.13c5.05,0,10.11,0,15.16,0Z" transform="translate(-86.77 -158.33)"/><path class="cls-2" d="M418,334.58a4,4,0,0,0-.42,2.55c0,5.5,0,11,0,16.5,0,.44,0,.88,0,1.32-.07,1.51-.08,1.52-1.69,1.58-.29,0-.58,0-.88,0H375.38c-1.83,0-1.87,0-1.87-1.84,0-6.75,0-13.49,0-20.24,2,0,4,.07,5.94.07Z" transform="translate(-86.77 -158.33)"/><path class="cls-2" d="M483.59,312.48q0,10,0,19.95c0,2.05,0,2.07-2.06,2.07-6.65,0-13.3,0-19.95,0q0-11-.05-22.05Z" transform="translate(-86.77 -158.33)"/><path class="cls-2" d="M461.58,334.53q0,9.8,0,19.58c0,.52,0,1,0,1.54a.82.82,0,0,1-.83.85c-.44,0-.88,0-1.32,0h-17.6c-2.23,0-2.23,0-2.24-2.36q0-9.78,0-19.58Z" transform="translate(-86.77 -158.33)"/><path class="cls-2" d="M373.54,334.46c-6.75,0-13.49,0-20.24,0-1.75,0-1.81,0-1.81-1.67,0-6.82,0-13.64.05-20.46a57.13,57.13,0,0,0,6.8.12c5.06,0,10.11,0,15.17,0Z" transform="translate(-86.77 -158.33)"/><path class="cls-2" d="M681.86,576.81c0-6.8-.05-13.6,0-20.4,0-1.63,0-1.67,1.79-1.68,6.73,0,13.46,0,20.19,0,.17,7.35.09,14.7,0,22Z" transform="translate(-86.77 -158.33)"/><path class="cls-2" d="M329.45,598.77H349l1.54,0a.89.89,0,0,1,.95,1c0,.29,0,.58,0,.88l0,20.18h-22C329.59,613.46,329.54,606.12,329.45,598.77Z" transform="translate(-86.77 -158.33)"/><path class="cls-2" d="M637.83,620.91c0-6.82-.05-13.64-.05-20.47,0-1.58.06-1.66,1.59-1.66,6.82,0,13.65,0,20.47.05q0,11-.05,22H640.24C639.44,620.81,638.64,620.88,637.83,620.91Z" transform="translate(-86.77 -158.33)"/><path class="cls-2" d="M329.44,334.5q0,10,0,20c0,1.95,0,2-1.94,2-5.58,0-11.16,0-16.73,0-.52,0-1,0-1.55,0-1.08-.08-1.43.48-1.36,1.47,0,.44,0,.88,0,1.32,0,5.65,0,11.3,0,16.95,0,.77.34,1.64-.43,2.27q0-21,.07-42.09c0-.66-.06-1.31-.09-2Z" transform="translate(-86.77 -158.33)"/><path class="cls-2" d="M527.61,356.53H506.75c-.7,0-1.1-.31-1.1-1,0-.22,0-.44,0-.66q0-10.2.05-20.42a57.16,57.16,0,0,0,6.8.12c5.06,0,10.11,0,15.17,0C527.71,341.83,527.8,349.18,527.61,356.53Z" transform="translate(-86.77 -158.33)"/><path class="cls-2" d="M373.57,620.91c0-6.82-.06-13.64-.05-20.47,0-1.62.05-1.66,1.81-1.66,5.43,0,10.86,0,16.29,0h23.12c.51,0,1,0,1.54,0,1,0,1.31.45,1.26,1.35,0,.22,0,.44,0,.66q0,10,0,20h-42C374.89,620.81,374.23,620.88,373.57,620.91Z" transform="translate(-86.77 -158.33)"/><path class="cls-2" d="M571.77,620.91c0-6.82-.06-13.64-.06-20.47,0-1.62.06-1.66,1.81-1.66,5.43,0,10.87,0,16.3,0h23.11c.52,0,1,0,1.54,0,1,0,1.32.45,1.27,1.35,0,.22,0,.44,0,.66l0,20h-42C573.08,620.81,572.43,620.88,571.77,620.91Z" transform="translate(-86.77 -158.33)"/><path class="cls-2" d="M285.87,510.61l18.23.07c.52,0,1,0,1.54,0,1.74,0,1.74.05,1.8,1.69v.43q0,32,0,63.93l-21.58-.07v-63.2C285.84,512.51,285.86,511.56,285.87,510.61Z" transform="translate(-86.77 -158.33)"/><path class="cls-2" d="M307.42,576.75h19.52l1.54,0a.89.89,0,0,1,1,.94c0,.37,0,.73,0,1.1q0,10,0,20h-22C307.57,591.44,307.52,584.09,307.42,576.75Z" transform="translate(-86.77 -158.33)"/><path class="cls-2" d="M659.84,598.83c0-6.81-.05-13.63,0-20.44,0-1.56.07-1.63,1.62-1.63,6.81,0,13.63,0,20.44,0q0,11-.05,22Z" transform="translate(-86.77 -158.33)"/><path class="cls-4" d="M329.49,422.52l0,19.38c0,.58,0,1.17,0,1.76a.88.88,0,0,1-1,.94l-1.1,0c-5.95,0-11.89,0-17.83,0-2.06,0-2.09,0-2.09-2.06q0-8.93,0-17.83c0-2.11,0-2.11,2.26-2.12l19.81-.05Z" transform="translate(-86.77 -158.33)"/><path d="M395.41,422.49a3.81,3.81,0,0,1,.17,1.74q0,9.22,0,18.46c0,2.06.19,1.94-1.83,1.94H375.28c-1.68,0-1.71,0-1.71-1.65q0-9.33,0-18.68c0-1.66,0-1.68,1.68-1.69l20.21-.06Z" transform="translate(-86.77 -158.33)"/><path d="M417.45,422.66c7,0,13.95,0,20.92-.07.93,0,1.28.27,1.27,1.24q0,9.8,0,19.6c0,1-.36,1.22-1.28,1.22-6.46,0-12.92,0-19.38,0-1.26,0-1.41-.54-1.4-1.58,0-6,0-12,0-18.05,0-.81-.06-1.61-.1-2.41Z" transform="translate(-86.77 -158.33)"/><path class="cls-4" d="M483.61,422.6h19.56c.37,0,.74,0,1.1,0,1.08-.08,1.44.49,1.36,1.47,0,.22,0,.44,0,.66,0,5.94,0,11.87,0,17.81,0,2,0,2.07-2.07,2.07-5.94,0-11.87,0-17.81,0-2.12,0-2.14,0-2.14-2.23q0-9.88,0-19.78Z" transform="translate(-86.77 -158.33)"/><path d="M329.51,422.55q0-10,0-20c0-2-.2-2,1.85-2,6.22,0,12.44,0,18.67,0,1.09,0,1.53.23,1.52,1.43-.05,6.45,0,12.89,0,19.34,0,.88-.19,1.3-1.2,1.29-7-.07-13.91-.08-20.86-.11Z" transform="translate(-86.77 -158.33)"/><path d="M395.46,422.55a46.8,46.8,0,0,0,.11-5.92c0-4.84,0-9.68,0-14.51,0-1.07.19-1.57,1.42-1.56,6.45.06,12.9,0,19.35,0,.71,0,1.29,0,1.27,1-.11,7,.19,14.06-.16,21.08l.05-.05H397.81c-.8,0-1.6-.07-2.4-.11Z" transform="translate(-86.77 -158.33)"/><path d="M483.61,422.6H463.36c-1.68,0-1.7,0-1.71-1.66q0-9.34,0-18.71c0-1.62,0-1.64,1.72-1.65,6.24,0,12.48,0,18.71,0,1,0,1.64,0,1.62,1.34-.09,6.89-.07,13.79-.09,20.68Z" transform="translate(-86.77 -158.33)"/></svg>